<svg xmlns="http://www.w3.org/2000/svg" width="512" height="512" fill="none" viewBox="0 0 512 512"><path fill="#fff" d="M78.54 417.866v-61.133h8.085v26.746H97.36l41.81-26.746h12.126l-45.809 29.93 47.157 31.203h-12.126l-43.116-28.019H86.625v28.019zm141.174-13.612q0 5.134-1.642 8.08-1.6 2.945-4.926 4.298t-8.505 1.712q-5.137.398-12.253.398-8.126 0-13.81-.796-5.642-.757-9.137-3.145-3.453-2.428-5.052-7.243-1.558-4.816-1.558-12.856 0-7.8 1.516-12.497 1.557-4.697 5.01-7.085t9.052-3.184q5.642-.795 13.769-.796 9.305 0 15.41 1.234t9.095 4.697q3.031 3.462 3.031 10.149v9.83h-48.757q.042 5.095.758 8.16.715 3.065 2.863 4.616 2.148 1.553 6.4 2.07 4.294.478 11.41.478 6.4 0 10.316-.239 3.957-.238 5.979-1.035 2.062-.836 2.779-2.468.715-1.632.715-4.378zm-27.536-26.746q-6.864 0-11.074.478-4.168.477-6.358 1.871-2.189 1.353-2.989 4.059-.758 2.707-.8 7.125h41.01v-3.821q0-2.866-.716-4.736-.673-1.91-2.695-2.986-2.02-1.113-5.978-1.552-3.917-.438-10.4-.438m42.882 40.358v-61.133h8.084v21.372q1.81-2.307 4.463-3.86 2.696-1.552 7.158-2.309 4.505-.795 11.79-.796 9.515 0 14.989 1.752 5.515 1.75 7.831 6.248t2.316 12.736v25.99h-8.126v-25.99q0-4.696-.842-7.562-.842-2.865-2.906-4.338-2.02-1.473-5.599-1.95-3.58-.518-9.095-.518-8.421 0-13.221 1.314-4.8 1.313-6.779 4.139-1.979 2.786-1.979 7.284v27.621zm72.267 0v-61.133h8.084v61.133z"/><path stroke="#fff" stroke-width="1.244" d="M192.177 370.518c6.227 0 11.409.412 15.534 1.246 4.155.84 7.328 2.454 9.439 4.896 2.157 2.464 3.186 6.019 3.186 10.56v10.452h-48.747c.053 3.08.299 5.54.732 7.396.45 1.926 1.334 3.323 2.622 4.255 1.308.945 3.318 1.615 6.102 1.955h.001q4.245.472 11.342.473 6.39 0 10.278-.237h.001c2.617-.158 4.532-.499 5.788-.993 1.261-.512 2.041-1.236 2.437-2.139.429-.978.663-2.341.663-4.128v-.622h8.781v.622c0 3.478-.554 6.291-1.72 8.383-1.141 2.096-2.897 3.62-5.236 4.571-2.298.935-5.202 1.513-8.692 1.755q-5.168.4-12.3.401-8.151 0-13.892-.802v.001c-3.826-.513-6.973-1.586-9.406-3.248l-.007-.004c-2.431-1.71-4.185-4.246-5.285-7.557l-.002-.005c-1.066-3.297-1.587-7.655-1.588-13.047 0-5.232.508-9.47 1.546-12.688l.002-.005c1.074-3.235 2.816-5.718 5.247-7.4 2.404-1.663 5.522-2.749 9.319-3.288h.001q5.7-.803 13.854-.803Zm-104.93-14.407v26.746h9.931l41.658-26.649.154-.097h14.397l-1.749 1.142-45.018 29.412 46.368 30.682 1.724 1.142h-14.378l-.155-.101-42.96-27.919h-9.972v28.02h-9.329v-62.378zm156.519 0v20.34a16.6 16.6 0 0 1 3.527-2.743l.003-.003c1.765-1.016 4.042-1.771 6.806-2.283l.56-.099c3.053-.539 7.021-.805 11.892-.805 6.372 0 11.442.585 15.179 1.781h-.001c3.81 1.21 6.566 3.39 8.196 6.557 1.609 3.125 2.385 7.484 2.385 13.02v26.613h-9.37v-26.613c0-3.101-.28-5.556-.818-7.386-.529-1.802-1.427-3.12-2.669-4.007l-.005-.004c-1.235-.9-2.99-1.526-5.316-1.836l-.007-.001c-2.345-.339-5.344-.511-9.005-.511-5.591 0-9.935.437-13.057 1.291-3.12.854-5.227 2.174-6.433 3.896l-.003.004c-1.224 1.723-1.864 4.013-1.864 6.922v28.245h-9.328v-62.378zm72.268 0v62.378h-9.328v-62.378zm-123.857 22.02c-4.564 0-8.229.159-11.003.474l-.001-.001c-2.735.313-4.747.922-6.092 1.778l-.007.004c-1.317.814-2.226 2.034-2.72 3.707-.448 1.603-.705 3.706-.763 6.325h39.754v-3.198c0-1.864-.234-3.361-.675-4.514l-.005-.015c-.391-1.108-1.172-1.989-2.401-2.643l-.008-.005c-1.241-.684-3.139-1.19-5.747-1.478h-.001c-2.577-.288-6.018-.434-10.331-.434Z"/><path fill="#4aafea" d="M332.354 417.866v-7.642h8.085v7.642zm22.313 0v-43.303h8.084v43.303zm0-53.492v-7.641h8.084v7.641zm50.648 54.368q-8.126 0-13.81-.796-5.684-.757-9.179-3.145-3.495-2.428-5.095-7.243t-1.6-12.856q0-7.8 1.6-12.497t5.095-7.085 9.179-3.184q5.684-.795 13.81-.796 8.168 0 13.811.796 5.684.796 9.178 3.184t5.095 7.085q1.6 4.697 1.6 12.497 0 8.04-1.6 12.856-1.6 4.815-5.095 7.243-3.494 2.389-9.178 3.145-5.643.795-13.811.796m21.6-24.04q0-5.691-.632-9.114-.59-3.423-2.652-5.134-2.064-1.752-6.442-2.349-4.337-.597-11.874-.597-7.494 0-11.873.597-4.38.597-6.442 2.349-2.064 1.711-2.695 5.134-.59 3.423-.59 9.114 0 5.89.59 9.433.631 3.542 2.695 5.333 2.062 1.751 6.442 2.348 4.379.558 11.873.558 7.537 0 11.874-.558 4.378-.597 6.442-2.348 2.063-1.791 2.652-5.333.632-3.543.632-9.433"/><path stroke="#4aafea" stroke-width="1.244" d="M405.315 370.518q8.197 0 13.898.803h-.001c3.852.539 7.011 1.624 9.443 3.286 2.459 1.68 4.231 4.162 5.333 7.397 1.098 3.222 1.633 7.464 1.633 12.698 0 5.393-.535 9.753-1.632 13.052-1.1 3.313-2.87 5.85-5.33 7.559l-.004.002c-2.433 1.663-5.594 2.735-9.447 3.248l-.001-.001q-5.699.802-13.892.802-8.151 0-13.892-.802v.001c-3.853-.513-7.015-1.585-9.448-3.248l-.004-.002c-2.461-1.709-4.23-4.246-5.33-7.559-1.097-3.299-1.632-7.659-1.632-13.052 0-5.234.536-9.476 1.634-12.698 1.102-3.235 2.873-5.717 5.332-7.397 2.432-1.662 5.592-2.747 9.444-3.286q5.742-.803 13.896-.803Zm-64.254 39.084v8.887h-9.329v-8.887zm22.312-35.661v44.548h-9.328v-44.548zm41.942 4.19c-4.984 0-8.911.198-11.79.591-2.868.391-4.878 1.15-6.123 2.206l-.006.005c-1.233 1.023-2.076 2.586-2.479 4.767-.384 2.232-.579 5.228-.579 9.002 0 3.912.196 7.017.581 9.33h-.001c.404 2.26 1.25 3.888 2.484 4.961l.243.196c1.256.955 3.191 1.644 5.88 2.01h-.001c2.881.367 6.808.552 11.791.552 5.011 0 8.937-.185 11.789-.552 2.866-.39 4.875-1.148 6.12-2.203 1.235-1.072 2.069-2.7 2.446-4.964l.001-.006c.412-2.31.622-5.413.622-9.324 0-3.777-.21-6.773-.621-9.002l-.002-.006c-.375-2.18-1.206-3.74-2.437-4.761l-.004-.005c-1.245-1.056-3.256-1.815-6.125-2.206-2.851-.392-6.776-.591-11.789-.591Zm-41.942-22.02v8.885h-9.328v-8.885z"/><path fill="#fff" d="M83.366 450.166q-1.502 0-2.705-.497a5.25 5.25 0 0 1-1.98-1.432q-.774-.926-1.013-2.198l1.491-.249q.358 1.392 1.512 2.188 1.153.786 2.754.786 1.055 0 1.89-.329.835-.338 1.312-.954t.478-1.462q0-.557-.2-.945a1.9 1.9 0 0 0-.526-.656 3.3 3.3 0 0 0-.716-.428 6 6 0 0 0-.756-.288l-3.63-1.084a6.6 6.6 0 0 1-1.213-.477 4.3 4.3 0 0 1-.974-.706 3 3 0 0 1-.637-.975 3.3 3.3 0 0 1-.229-1.273q0-1.213.637-2.098.636-.885 1.74-1.362t2.516-.468q1.432 0 2.556.507a4.84 4.84 0 0 1 1.87 1.452q.735.936.974 2.218l-1.532.278a3.47 3.47 0 0 0-.686-1.621 3.5 3.5 0 0 0-1.372-1.054 4.4 4.4 0 0 0-1.82-.387q-.964 0-1.72.328-.746.318-1.184.875a2 2 0 0 0-.437 1.273q0 .725.397 1.163.408.438.995.686.597.249 1.153.408l2.805.825q.437.12 1.024.348.597.219 1.153.637.567.408.935 1.074t.368 1.69q0 .995-.398 1.78a3.66 3.66 0 0 1-1.103 1.323q-.707.537-1.661.815-.945.29-2.068.289m12.563 0q-1.601 0-2.734-.726t-1.74-2.009-.607-2.943q0-1.69.616-2.964.617-1.272 1.75-1.979 1.145-.716 2.715-.716 1.612 0 2.745.726 1.143.717 1.74 1.999.607 1.273.607 2.934 0 1.69-.607 2.973a4.65 4.65 0 0 1-1.75 1.989q-1.143.716-2.735.716m0-1.402q1.79 0 2.665-1.184.876-1.193.876-3.092 0-1.95-.885-3.103-.876-1.154-2.656-1.154-1.203 0-1.989.547-.775.537-1.163 1.502-.378.954-.378 2.208 0 1.938.895 3.112.895 1.164 2.635 1.164m9.145 1.103v-11.535q0-.417.04-.825.05-.408.189-.776.139-.378.437-.696.329-.358.716-.517.388-.17.806-.219.427-.05.835-.05h1.372v1.233h-1.272q-.836 0-1.253.408-.408.408-.408 1.283v11.694zm-1.86-9.486v-1.253h6.255v1.253zm14.489 9.486a7.2 7.2 0 0 1-1.79.15 4 4 0 0 1-1.571-.378 2.27 2.27 0 0 1-1.044-1.054 3.1 3.1 0 0 1-.318-1.204 42 42 0 0 1-.02-1.402v-9.835h1.452v9.776q0 .675.009 1.133.02.448.209.796.358.666 1.134.795.786.13 1.939-.059zm-7.04-9.486v-1.253h7.04v1.253zm12.239 9.486-3.282-10.749 1.462.01 2.546 8.343 2.555-8.343h1.333l2.556 8.343 2.565-8.343h1.452l-3.282 10.739h-1.272l-2.685-8.552-2.675 8.552zm16.245.299q-1.214 0-2.039-.438-.815-.437-1.223-1.163a3.2 3.2 0 0 1-.408-1.581q0-.876.348-1.492.359-.627.965-1.024a4.9 4.9 0 0 1 1.422-.607 21 21 0 0 1 1.8-.348 44 44 0 0 1 1.939-.268 65 65 0 0 0 1.671-.229l-.517.318q.029-1.591-.617-2.357-.647-.765-2.247-.765-1.104 0-1.87.497-.756.497-1.064 1.571l-1.422-.418q.368-1.442 1.482-2.237t2.894-.796q1.472 0 2.496.557 1.033.547 1.461 1.591a3.6 3.6 0 0 1 .259 1.044q.06.577.06 1.174v6.672h-1.303v-2.694l.378.159q-.547 1.382-1.701 2.108t-2.764.726m.169-1.263q1.024 0 1.79-.368.765-.368 1.233-1.004.467-.646.606-1.452.12-.517.13-1.134.01-.626.01-.935l.557.289a95 95 0 0 1-1.621.199q-.865.099-1.711.228-.835.129-1.511.309-.458.129-.885.367a2.04 2.04 0 0 0-.706.617q-.269.388-.269.965 0 .467.229.905.238.437.756.725.526.29 1.392.289m8.605.964v-10.739h1.313v2.585l-.259-.338q.179-.477.467-.875.289-.408.627-.666.417-.368.974-.557a4 4 0 0 1 1.124-.229q.567-.04 1.034.08v1.372a3.5 3.5 0 0 0-1.283-.07 2.44 2.44 0 0 0-1.282.557 2.7 2.7 0 0 0-.806 1.005 4.3 4.3 0 0 0-.358 1.233 9 9 0 0 0-.089 1.282v5.36zm12.313.299q-1.572 0-2.725-.696-1.144-.696-1.78-1.959t-.637-2.964q0-1.76.627-3.043t1.76-1.979q1.144-.696 2.695-.696 1.592 0 2.715.736 1.124.726 1.7 2.088.577 1.364.527 3.252h-1.491v-.517q-.04-2.088-.905-3.152-.855-1.065-2.506-1.064-1.731 0-2.655 1.123-.915 1.124-.915 3.203 0 2.028.915 3.152.924 1.114 2.615 1.114 1.154 0 2.009-.527.865-.537 1.362-1.542l1.362.527q-.636 1.403-1.879 2.178-1.234.766-2.794.766m-4.107-5.261v-1.223h8.204v1.223zm16.769 4.962v-14.319h4.345q.229 0 .776.01.557.01 1.064.079 1.631.23 2.725 1.213 1.094.985 1.641 2.506.546 1.522.547 3.352 0 1.828-.547 3.351-.548 1.52-1.641 2.506-1.094.984-2.725 1.213-.497.06-1.064.079-.566.01-.776.01zm1.511-1.402h2.834q.408 0 .875-.02.478-.03.816-.099 1.252-.219 2.019-1.014.776-.797 1.133-1.989.358-1.204.358-2.635 0-1.442-.358-2.646-.357-1.203-1.133-1.988-.776-.786-2.019-1.005a5 5 0 0 0-.825-.089q-.478-.03-.866-.03h-2.834zm17.191 1.701q-1.57 0-2.724-.696-1.144-.696-1.78-1.959t-.637-2.964q0-1.76.627-3.043.626-1.283 1.76-1.979 1.144-.696 2.695-.696 1.59 0 2.714.736 1.124.726 1.701 2.088.576 1.364.527 3.252h-1.492v-.517q-.04-2.088-.905-3.152-.855-1.065-2.506-1.064-1.73 0-2.655 1.123-.915 1.124-.914 3.203 0 2.028.914 3.152.925 1.114 2.616 1.114 1.153 0 2.008-.527.865-.537 1.363-1.542l1.362.527q-.637 1.403-1.879 2.178-1.233.766-2.795.766m-4.107-5.261v-1.223h8.204v1.223zm14.508 4.962-3.898-10.739h1.481l3.172 8.83 3.153-8.83h1.501l-3.898 10.739zm12.147.299q-1.57 0-2.725-.696-1.143-.696-1.78-1.959-.636-1.263-.636-2.964 0-1.76.627-3.043.626-1.283 1.76-1.979 1.143-.696 2.695-.696 1.59 0 2.714.736 1.124.726 1.701 2.088.576 1.364.527 3.252h-1.492v-.517q-.04-2.088-.905-3.152-.855-1.065-2.506-1.064-1.73 0-2.655 1.123-.915 1.124-.915 3.203 0 2.028.915 3.152.925 1.114 2.616 1.114 1.153 0 2.008-.527.865-.537 1.363-1.542l1.362.527q-.637 1.403-1.879 2.178-1.234.766-2.795.766m-4.107-5.261v-1.223h8.204v1.223zm12.191 4.962v-14.618h1.462v14.618zm9.724.299q-1.602 0-2.735-.726-1.134-.726-1.74-2.009t-.607-2.943q0-1.69.617-2.964.616-1.272 1.75-1.979 1.143-.716 2.715-.716 1.61 0 2.744.726 1.145.717 1.74 1.999.607 1.273.607 2.934 0 1.69-.607 2.973a4.65 4.65 0 0 1-1.75 1.989q-1.143.716-2.734.716m0-1.402q1.79 0 2.665-1.184.875-1.193.875-3.092 0-1.95-.885-3.103-.876-1.154-2.655-1.154-1.205 0-1.989.547-.775.537-1.164 1.502-.378.954-.378 2.208 0 1.938.895 3.112.895 1.164 2.636 1.164m12.903 1.402q-1.482 0-2.506-.746-1.024-.756-1.551-2.039-.527-1.292-.527-2.893 0-1.632.527-2.904.537-1.283 1.571-2.019 1.035-.736 2.546-.736 1.471 0 2.526.746 1.053.746 1.611 2.029.566 1.282.566 2.884 0 1.61-.566 2.893-.567 1.284-1.631 2.039-1.065.746-2.566.746m-4.833 4.475v-15.513h1.313v8.084h.159v7.429zm4.684-5.838q1.123 0 1.87-.566.745-.567 1.113-1.542.378-.984.378-2.207 0-1.213-.368-2.188t-1.123-1.542q-.747-.566-1.9-.566-1.124 0-1.869.547-.737.546-1.104 1.521-.368.965-.368 2.228 0 1.243.368 2.227.367.974 1.114 1.532.746.556 1.889.556m20.7 1.064.01-7.05q0-1.243-.696-1.949-.687-.716-1.75-.716-.607 0-1.184.278-.577.279-.954.895-.368.617-.368 1.611l-.866-.248q-.029-1.154.448-2.019a3.46 3.46 0 0 1 1.332-1.342q.856-.488 1.93-.488 1.62 0 2.595 1.005.975.994.975 2.695l-.01 7.328zm-12.818 0v-10.739h1.312v2.645h.16v8.094zm6.424 0 .01-6.951q0-1.283-.686-2.018-.677-.746-1.79-.746-1.115 0-1.8.766-.687.755-.686 2.018l-.876-.477q0-1.034.488-1.85.488-.825 1.332-1.292.845-.478 1.919-.478 1.025 0 1.82.438a3.1 3.1 0 0 1 1.263 1.273q.458.836.458 2.028l-.01 7.289zm15.726.299q-1.571 0-2.725-.696-1.143-.696-1.78-1.959-.636-1.263-.636-2.964 0-1.76.626-3.043.627-1.283 1.761-1.979 1.143-.696 2.694-.696 1.591 0 2.715.736 1.123.726 1.701 2.088.576 1.364.527 3.252h-1.492v-.517q-.04-2.088-.905-3.152-.855-1.065-2.506-1.064-1.73 0-2.655 1.123-.915 1.124-.915 3.203 0 2.028.915 3.152.925 1.114 2.615 1.114 1.154 0 2.009-.527.865-.537 1.363-1.542l1.362.527q-.636 1.403-1.88 2.178-1.233.766-2.794.766m-4.107-5.261v-1.223h8.204v1.223zm19.457 4.962v-5.479q0-.895-.169-1.641a3.8 3.8 0 0 0-.547-1.312 2.5 2.5 0 0 0-.964-.875q-.587-.309-1.432-.309-.776 0-1.373.269a2.7 2.7 0 0 0-.994.775 3.5 3.5 0 0 0-.607 1.214 5.8 5.8 0 0 0-.208 1.631l-1.035-.229q0-1.65.577-2.775t1.591-1.7q1.014-.577 2.327-.577.964 0 1.681.298.726.299 1.223.806.507.507.815 1.163.309.646.448 1.383.14.726.139 1.452v5.906zm-7.766 0v-10.739h1.322v2.645h.15v8.094zm18.461 0a7.2 7.2 0 0 1-1.79.15 4 4 0 0 1-1.571-.378 2.28 2.28 0 0 1-1.044-1.054 3.1 3.1 0 0 1-.318-1.204q-.02-.616-.02-1.402v-9.835h1.452v9.776q0 .675.01 1.133.02.448.209.796.357.666 1.133.795.786.13 1.939-.059zm-7.04-9.486v-1.253h7.04v1.253zm19.333 9.785a7 7 0 0 1-2.217-.338 4.1 4.1 0 0 1-1.701-1.084 3.8 3.8 0 0 1-.795-1.283 5 5 0 0 1-.289-1.512 4.9 4.9 0 0 1 .219-1.501 3.7 3.7 0 0 1 .716-1.323q.289-.357.646-.596.369-.24.756-.408-.745-.776-1.143-1.432-.388-.666-.388-1.631 0-1.104.557-2.019a3.46 3.46 0 0 1 1.561-1.362 4.2 4.2 0 0 1 1.034-.318q.537-.1 1.064-.1.805 0 1.581.229a3.4 3.4 0 0 1 1.323.696q.368.288.646.686.279.389.438.816l-1.412.417a2.07 2.07 0 0 0-.696-.905 2.2 2.2 0 0 0-.876-.417 4 4 0 0 0-.984-.12q-.846 0-1.531.329a2.04 2.04 0 0 0-.895.825q-.299.526-.299 1.233 0 .606.199 1.004.2.388.577.846.219.238.487.487.268.239.547.497l4.535 4.207a5 5 0 0 0 .049-.537q.01-.269.01-.527l-.01-2.099h1.383v2.198q0 .785-.06 1.283a5 5 0 0 1-.159.825l1.85 1.701-.965 1.024-1.581-1.492a3.4 3.4 0 0 1-.836.766 4.8 4.8 0 0 1-.994.527 4.1 4.1 0 0 1-1.134.318q-.596.09-1.213.09m.02-1.412q.567 0 1.024-.07.458-.069.875-.288.528-.279.786-.517.259-.249.418-.438l-4.654-4.256a3.3 3.3 0 0 0-.786.358 2.5 2.5 0 0 0-.616.527 2.4 2.4 0 0 0-.428.825q-.14.468-.139.985.02.547.179 1.014.169.457.497.816.467.546 1.253.795a5.2 5.2 0 0 0 1.591.249m19.701 1.412q-2.138 0-3.61-.945-1.472-.955-2.227-2.635-.756-1.681-.756-3.878t.756-3.879q.755-1.68 2.227-2.625 1.472-.954 3.61-.955 2.496 0 4.077 1.283 1.581 1.273 2.168 3.421l-1.492.388q-.457-1.7-1.641-2.695t-3.112-.994q-1.68 0-2.794.765-1.114.766-1.681 2.138-.557 1.362-.577 3.153-.01 1.79.547 3.152.567 1.362 1.691 2.138 1.133.765 2.814.766 1.93 0 3.112-.995 1.183-1.004 1.641-2.695l1.492.388q-.587 2.148-2.168 3.431-1.581 1.273-4.077 1.273m13.719 0q-1.6 0-2.734-.726t-1.741-2.009q-.606-1.283-.606-2.943 0-1.69.616-2.964.617-1.272 1.751-1.979 1.143-.716 2.714-.716 1.611 0 2.745.726a4.6 4.6 0 0 1 1.74 1.999q.607 1.273.607 2.934 0 1.69-.607 2.973a4.65 4.65 0 0 1-1.75 1.989q-1.143.716-2.735.716m0-1.402q1.79 0 2.665-1.184.876-1.193.876-3.092 0-1.95-.885-3.103-.876-1.154-2.656-1.154-1.203 0-1.988.547-.776.537-1.164 1.502-.378.954-.378 2.208 0 1.938.895 3.112.895 1.164 2.635 1.164m15.838 1.103v-5.479q0-.895-.169-1.641a3.8 3.8 0 0 0-.547-1.312 2.5 2.5 0 0 0-.965-.875q-.586-.309-1.432-.309-.775 0-1.372.269a2.7 2.7 0 0 0-.995.775 3.5 3.5 0 0 0-.606 1.214 5.8 5.8 0 0 0-.209 1.631l-1.034-.229q0-1.65.576-2.775.577-1.124 1.592-1.7 1.014-.577 2.326-.577.966 0 1.681.298.726.299 1.223.806.507.507.816 1.163.308.646.447 1.383.14.726.139 1.452v5.906zm-7.767 0v-10.739h1.323v2.645h.149v8.094zm16.622.289q-1.89 0-3.113-.816-1.213-.815-1.491-2.267l1.491-.249q.24.916 1.084 1.462.855.537 2.109.537 1.223 0 1.929-.507.706-.517.706-1.402 0-.497-.229-.805-.219-.319-.905-.587t-2.048-.637q-1.462-.397-2.288-.795-.825-.397-1.173-.915-.348-.527-.348-1.283 0-.914.517-1.601.517-.696 1.432-1.074.915-.387 2.128-.388 1.213 0 2.168.398.964.388 1.551 1.094t.696 1.641l-1.491.268a2.15 2.15 0 0 0-.945-1.491q-.786-.558-1.999-.577-1.143-.03-1.859.437-.716.458-.716 1.224 0 .428.258.735.259.298.935.567.686.269 1.949.587 1.481.378 2.327.795t1.203.985q.358.567.358 1.402 0 1.521-1.133 2.397-1.125.865-3.103.865m11.344-.02q-.964 0-1.69-.298a3.7 3.7 0 0 1-1.223-.806 4.3 4.3 0 0 1-.806-1.153 5.8 5.8 0 0 1-.447-1.383 8 8 0 0 1-.14-1.461v-5.907h1.472v5.479q0 .885.169 1.641.17.756.537 1.322.378.558.965.865.596.309 1.442.309.775 0 1.362-.269a2.64 2.64 0 0 0 .994-.765q.408-.508.617-1.224a6 6 0 0 0 .209-1.63l1.034.228q0 1.651-.577 2.775t-1.591 1.7-2.327.577m3.61-.269v-2.645h-.149v-8.094h1.462v10.739zm5.086 0v-14.618h1.462v14.618zm11.086 0a7.2 7.2 0 0 1-1.79.15 4 4 0 0 1-1.571-.378 2.28 2.28 0 0 1-1.044-1.054 3.1 3.1 0 0 1-.318-1.204 42 42 0 0 1-.02-1.402v-9.835h1.452v9.776q0 .675.01 1.133.02.448.208.796.358.666 1.134.795.786.13 1.939-.059zm-7.04-9.486v-1.253h7.04v1.253zm10.151-3.292v-1.641h1.461v1.641zm0 12.778v-10.739h1.461v10.739zm12.995 0v-5.479q0-.895-.169-1.641a3.8 3.8 0 0 0-.547-1.312 2.5 2.5 0 0 0-.965-.875q-.586-.309-1.432-.309-.775 0-1.372.269a2.7 2.7 0 0 0-.995.775 3.5 3.5 0 0 0-.606 1.214 5.8 5.8 0 0 0-.209 1.631l-1.034-.229q0-1.65.577-2.775.576-1.124 1.591-1.7 1.014-.577 2.327-.577.964 0 1.68.298.726.299 1.223.806.507.507.816 1.163.308.646.447 1.383.14.726.14 1.452v5.906zm-7.767 0v-10.739h1.323v2.645h.149v8.094zm16.881 5.072a5.5 5.5 0 0 1-1.631-.249 4.5 4.5 0 0 1-1.472-.765 4.2 4.2 0 0 1-1.134-1.353l1.323-.736q.447.896 1.253 1.283a3.75 3.75 0 0 0 1.661.398q1.163 0 1.879-.438.726-.427 1.054-1.272.328-.846.318-2.109v-2.864h.169v-7.706h1.303v10.59q0 .458-.03.875a7 7 0 0 1-.089.836q-.189 1.203-.786 1.979a3.5 3.5 0 0 1-1.551 1.153q-.954.378-2.267.378m-.1-4.773q-1.502 0-2.565-.746-1.065-.756-1.631-2.039-.567-1.282-.567-2.893 0-1.602.557-2.884.567-1.283 1.621-2.029 1.053-.746 2.526-.746 1.511 0 2.545.736t1.562 2.019q.537 1.272.537 2.904 0 1.601-.528 2.893-.526 1.284-1.551 2.039-1.024.746-2.506.746m.149-1.363q1.144 0 1.89-.556.745-.558 1.114-1.532.367-.985.367-2.227 0-1.263-.367-2.228-.369-.975-1.114-1.521-.736-.547-1.86-.547-1.153 0-1.909.566-.755.567-1.124 1.542-.358.975-.358 2.188 0 1.223.368 2.207.378.975 1.124 1.542.746.566 1.869.566"/><path fill="url(#a)" d="M194.073 275.38v-28.883L362.28 94.482h-70.885L142.962 229.46v92.107z"/><path fill="url(#b)" d="m208.632 241.899 38.136-34.443 124.373 112.291h-78.696z"/><path fill="url(#c)" d="m300.896 176.475 52.274-47.285v148.787l-10.532-9.502-10.533-9.501-31.209-28.155z"/><path fill="url(#d)" d="m142.399 140.052 52.274-47.285v81.325l-17.353 15.697-11.542 10.441-12.514 11.318-10.865 9.829z"/><path stroke="#77d4f8" stroke-width="1.867" d="M153.284 211.548v-34.685m0-23.573v23.573m0 0 11.269-11.126v-16.864m1.244 51.356v-23.366l10.299-10.313v-38.14m1.244 61.379v-11.456l9.195-9.303v-16.331"/><circle cx="153.158" cy="150.031" r="3.422" stroke="#77d4f8" stroke-width="1.867"/><circle cx="164.505" cy="144.738" r="3.422" stroke="#77d4f8" stroke-width="1.867"/><circle cx="186.535" cy="148.415" r="3.422" stroke="#77d4f8" stroke-width="1.867"/><path stroke="#77d4f8" stroke-width="1.867" d="M175.92 121.223a3.423 3.423 0 1 1-.001 6.845 3.423 3.423 0 0 1 .001-6.845Z"/><circle cx="246.215" cy="267.058" r="2.073" stroke="#fff" stroke-width="1.244"/><circle cx="308.872" cy="310.282" r="2.073" stroke="#fff" stroke-width="1.244"/><path fill="#fff" d="m324.376 308.359-1.264 1.375-12.346-11.359 1.264-1.373zm-28.005-11.535-1.249 1.386-31.812-28.666 1.25-1.386zm6.415-8.378h13.156v1.867h-13.876l-.266-.242-72.584-65.741 1.254-1.382zm-6.454-20.287-1.253 1.384-57.919-52.422 1.252-1.383zm-52.909-4.766-1.255 1.384-28.715-26.027 1.254-1.383zm-1.228-15.644-1.243 1.392-19.673-17.597 1.244-1.392z"/><path fill="url(#e)" d="m324.376 308.359-1.264 1.375-12.346-11.359 1.264-1.373zm-28.005-11.535-1.249 1.386-31.812-28.666 1.25-1.386zm6.415-8.378h13.156v1.867h-13.876l-.266-.242-72.584-65.741 1.254-1.382zm-6.454-20.287-1.253 1.384-57.919-52.422 1.252-1.383zm-52.909-4.766-1.255 1.384-28.715-26.027 1.254-1.383zm-1.228-15.644-1.243 1.392-19.673-17.597 1.244-1.392z"/><path fill="#fff" d="M322.683 289.364a2.49 2.49 0 1 0-2.489 2.488v1.867a4.355 4.355 0 1 1 0-8.71 4.355 4.355 0 0 1 0 8.71v-1.867a2.49 2.49 0 0 0 2.489-2.488"/><path fill="url(#f)" d="M322.683 289.364a2.49 2.49 0 1 0-2.489 2.488v1.867a4.355 4.355 0 1 1 0-8.71 4.355 4.355 0 0 1 0 8.71v-1.867a2.49 2.49 0 0 0 2.489-2.488"/><path fill="#fff" d="M301.217 271.907a2.489 2.489 0 1 0-2.489 2.488v1.867a4.355 4.355 0 1 1 0-8.71 4.355 4.355 0 0 1 0 8.71v-1.867a2.49 2.49 0 0 0 2.489-2.488"/><path fill="url(#g)" d="M301.217 271.907a2.489 2.489 0 1 0-2.489 2.488v1.867a4.355 4.355 0 1 1 0-8.71 4.355 4.355 0 0 1 0 8.71v-1.867a2.49 2.49 0 0 0 2.489-2.488"/><path fill="#fff" d="M301.4 300.355a2.488 2.488 0 1 0-2.488 2.489v1.867a4.355 4.355 0 1 1 0-8.71 4.355 4.355 0 0 1 0 8.71v-1.867a2.49 2.49 0 0 0 2.488-2.489"/><path fill="url(#h)" d="M301.4 300.355a2.488 2.488 0 1 0-2.488 2.489v1.867a4.355 4.355 0 1 1 0-8.71 4.355 4.355 0 0 1 0 8.71v-1.867a2.49 2.49 0 0 0 2.488-2.489"/><path fill="#fff" d="M263.25 265.95a2.488 2.488 0 1 0-2.488 2.489v1.866a4.355 4.355 0 1 1-.002-8.71 4.355 4.355 0 0 1 .002 8.71v-1.866a2.49 2.49 0 0 0 2.488-2.489"/><path fill="url(#i)" d="M263.25 265.95a2.488 2.488 0 1 0-2.488 2.489v1.866a4.355 4.355 0 1 1-.002-8.71 4.355 4.355 0 0 1 .002 8.71v-1.866a2.49 2.49 0 0 0 2.488-2.489"/><path fill="#fff" d="M327.034 310.723a1.451 1.451 0 1 0-1.451 1.451v1.244a2.694 2.694 0 1 1-.002-5.388 2.694 2.694 0 0 1 .002 5.388v-1.244a1.45 1.45 0 0 0 1.451-1.451"/><path fill="url(#j)" d="M327.034 310.723a1.451 1.451 0 1 0-1.451 1.451v1.244a2.694 2.694 0 1 1-.002-5.388 2.694 2.694 0 0 1 .002 5.388v-1.244a1.45 1.45 0 0 0 1.451-1.451"/><circle cx="246.215" cy="252.401" r="2.073" stroke="#fff" stroke-width="1.244"/><circle cx="271.824" cy="238.334" r="2.073" stroke="#fff" stroke-width="1.244"/><path fill="url(#k)" d="m294.866 118.761-36.236 32.786v14.212l-73.958 66.702v31.784h-1.866v-30.1l-15.825 14.272v27.281l-5.801 4.93v9.096h-1.867v-9.959l5.801-4.931v-27.245l.308-.279 91.341-82.379v-14.212l36.851-33.342zm27.86-52.316v12.468l-.305.278-78.873 71.672v14.326l-89.329 80.512v16.513h-1.866v-17.343l89.329-80.513v-14.321l.305-.278 78.873-71.673V66.445zM217.88 174.813l-51.208 46.188-1.25-1.386 51.208-46.187zm45.393 1.587-22.697 20.322-1.245-1.39 22.698-20.323zm88.712-112.198-29.259 28.757v18.355l-44.942 39.603-1.234-1.4 44.31-39.047V92.176l.279-.273 29.537-29.033zm-9.487 26.518v15.694l-6.872 6.872-1.319-1.32 6.325-6.325v-14.92z"/><path fill="url(#l)" d="M186.273 268.095a2.49 2.49 0 1 0-2.489 2.489v1.866a4.355 4.355 0 1 1 0-8.71 4.355 4.355 0 0 1 0 8.71v-1.866a2.49 2.49 0 0 0 2.489-2.489"/><path fill="url(#m)" d="M165.414 223.189a2.488 2.488 0 1 0-2.488 2.488v1.867a4.355 4.355 0 1 1 0-8.71 4.355 4.355 0 0 1 0 8.71v-1.867a2.49 2.49 0 0 0 2.488-2.488"/><path fill="url(#n)" d="M299.947 115.201a2.489 2.489 0 1 0-2.489 2.488v1.867a4.355 4.355 0 1 1 0-8.71 4.355 4.355 0 0 1 0 8.71v-1.867a2.49 2.49 0 0 0 2.489-2.488"/><path fill="url(#o)" d="M276.462 153.085a2.488 2.488 0 1 0-2.488 2.488v1.867a4.355 4.355 0 1 1-.001-8.71 4.355 4.355 0 0 1 .001 8.71v-1.867a2.49 2.49 0 0 0 2.488-2.488"/><path fill="url(#p)" d="M230.632 165.67a1.45 1.45 0 1 0-1.451 1.451v1.244a2.695 2.695 0 1 1 0-5.39 2.695 2.695 0 0 1 0 5.39v-1.244c.801 0 1.451-.65 1.451-1.451"/><path fill="url(#q)" d="M267.837 162.974a1.451 1.451 0 1 0-1.451 1.451v1.244a2.695 2.695 0 1 1 0-5.39 2.695 2.695 0 0 1 0 5.39v-1.244a1.45 1.45 0 0 0 1.451-1.451"/><path fill="url(#r)" d="M236.023 200.368a1.45 1.45 0 1 0-1.451 1.451v1.245a2.695 2.695 0 1 1 0-5.39 2.695 2.695 0 0 1 0 5.39v-1.245a1.45 1.45 0 0 0 1.451-1.451"/><path fill="url(#s)" d="M151.913 235.536a1.45 1.45 0 1 0-1.451 1.451v1.245a2.696 2.696 0 1 1 .001-5.391 2.696 2.696 0 0 1-.001 5.391v-1.245a1.45 1.45 0 0 0 1.451-1.451"/><path fill="url(#t)" d="M154.736 270.79a1.45 1.45 0 1 0-1.45 1.451v1.245a2.697 2.697 0 0 1 0-5.391 2.696 2.696 0 0 1 0 5.391v-1.245a1.45 1.45 0 0 0 1.45-1.451"/><path fill="url(#u)" d="M177.108 259.632a1.45 1.45 0 1 0-1.451 1.451v1.244a2.695 2.695 0 1 1 0-5.39 2.695 2.695 0 0 1 0 5.39v-1.244a1.45 1.45 0 0 0 1.451-1.451"/><path fill="url(#v)" d="M344.194 86.103a2.488 2.488 0 1 0-2.488 2.489v1.867a4.355 4.355 0 1 1-.001-8.711 4.355 4.355 0 0 1 .001 8.71v-1.866a2.49 2.49 0 0 0 2.488-2.489"/><path fill="url(#w)" d="M356.85 60.488a2.49 2.49 0 1 0-2.489 2.488v1.867a4.355 4.355 0 1 1 0-8.71 4.355 4.355 0 0 1 0 8.71v-1.867a2.49 2.49 0 0 0 2.489-2.488"/><path fill="url(#x)" d="M324.34 62.108a2.489 2.489 0 1 0-2.489 2.488v1.867a4.355 4.355 0 1 1 0-8.71 4.355 4.355 0 0 1 0 8.71v-1.867a2.49 2.49 0 0 0 2.489-2.488"/><path fill="url(#y)" d="M162.689 293.546a2.489 2.489 0 1 0-2.489 2.488v1.867a4.355 4.355 0 1 1 0-8.71 4.355 4.355 0 0 1 0 8.71v-1.867a2.49 2.49 0 0 0 2.489-2.488"/><path stroke="#77d4f8" stroke-width="1.867" d="M331.96 258.973v-10.599l-20.393-18.352v-20.249m30.925 58.702v-22.146l-20.715-18.392v-44.542"/><circle cx="311.788" cy="205.82" r="3.422" stroke="#77d4f8" stroke-width="1.867"/><circle cx="322.037" cy="179.89" r="3.422" stroke="#77d4f8" stroke-width="1.867"/><circle cx="342.492" cy="194.028" r="3.422" stroke="#77d4f8" stroke-width="1.867"/><circle cx="339" cy="156.96" r="3.422" stroke="#77d4f8" stroke-width="1.867"/><path stroke="#77d4f8" stroke-width="1.867" d="M342.492 198.04v36.449l-10.283-9.14V184.1l6.931-7.155v-16.212"/><defs><linearGradient id="a" x1="351.255" x2="281.192" y1="94.482" y2="305.612" gradientUnits="userSpaceOnUse"><stop stop-color="#5ed0fe"/><stop offset=".512" stop-color="#0862a7"/><stop offset="1" stop-color="#6b119a"/></linearGradient><linearGradient id="b" x1="327.389" x2="294.64" y1="207.456" y2="296.128" gradientUnits="userSpaceOnUse"><stop stop-color="#0862a7"/><stop offset="1" stop-color="#6d129f"/></linearGradient><linearGradient id="c" x1="345.452" x2="332.359" y1="129.19" y2="269.612" gradientUnits="userSpaceOnUse"><stop stop-color="#5ed0fe"/><stop offset=".512" stop-color="#0862a7"/><stop offset="1" stop-color="#631ba0"/></linearGradient><linearGradient id="d" x1="186.955" x2="150.201" y1="92.767" y2="213.178" gradientUnits="userSpaceOnUse"><stop stop-color="#5ed0fe"/><stop offset=".612" stop-color="#0862a7"/><stop offset="1" stop-color="#451f96"/></linearGradient><linearGradient id="e" x1="328.278" x2="186.815" y1="354.478" y2="283.994" gradientUnits="userSpaceOnUse"><stop stop-color="#4dff00"/><stop offset="1" stop-color="#5ed0fe"/></linearGradient><linearGradient id="f" x1="328.278" x2="186.815" y1="354.478" y2="283.994" gradientUnits="userSpaceOnUse"><stop stop-color="#4dff00"/><stop offset="1" stop-color="#5ed0fe"/></linearGradient><linearGradient id="g" x1="328.278" x2="186.815" y1="354.478" y2="283.994" gradientUnits="userSpaceOnUse"><stop stop-color="#4dff00"/><stop offset="1" stop-color="#5ed0fe"/></linearGradient><linearGradient id="h" x1="328.278" x2="186.815" y1="354.478" y2="283.994" gradientUnits="userSpaceOnUse"><stop stop-color="#4dff00"/><stop offset="1" stop-color="#5ed0fe"/></linearGradient><linearGradient id="i" x1="328.278" x2="186.815" y1="354.478" y2="283.994" gradientUnits="userSpaceOnUse"><stop stop-color="#4dff00"/><stop offset="1" stop-color="#5ed0fe"/></linearGradient><linearGradient id="j" x1="328.278" x2="186.815" y1="354.478" y2="283.994" gradientUnits="userSpaceOnUse"><stop stop-color="#4dff00"/><stop offset="1" stop-color="#5ed0fe"/></linearGradient><linearGradient id="k" x1="318.942" x2="141.617" y1="69.234" y2="230.935" gradientUnits="userSpaceOnUse"><stop stop-color="#4dff00"/><stop offset="1" stop-color="#5ed0fe"/></linearGradient><linearGradient id="l" x1="318.942" x2="141.617" y1="69.234" y2="230.935" gradientUnits="userSpaceOnUse"><stop stop-color="#4dff00"/><stop offset="1" stop-color="#5ed0fe"/></linearGradient><linearGradient id="m" x1="318.942" x2="141.617" y1="69.234" y2="230.935" gradientUnits="userSpaceOnUse"><stop stop-color="#4dff00"/><stop offset="1" stop-color="#5ed0fe"/></linearGradient><linearGradient id="n" x1="318.942" x2="141.617" y1="69.234" y2="230.935" gradientUnits="userSpaceOnUse"><stop stop-color="#4dff00"/><stop offset="1" stop-color="#5ed0fe"/></linearGradient><linearGradient id="o" x1="318.942" x2="141.617" y1="69.234" y2="230.935" gradientUnits="userSpaceOnUse"><stop stop-color="#4dff00"/><stop offset="1" stop-color="#5ed0fe"/></linearGradient><linearGradient id="p" x1="318.942" x2="141.617" y1="69.234" y2="230.935" gradientUnits="userSpaceOnUse"><stop stop-color="#4dff00"/><stop offset="1" stop-color="#5ed0fe"/></linearGradient><linearGradient id="q" x1="318.942" x2="141.617" y1="69.234" y2="230.935" gradientUnits="userSpaceOnUse"><stop stop-color="#4dff00"/><stop offset="1" stop-color="#5ed0fe"/></linearGradient><linearGradient id="r" x1="318.942" x2="141.617" y1="69.234" y2="230.935" gradientUnits="userSpaceOnUse"><stop stop-color="#4dff00"/><stop offset="1" stop-color="#5ed0fe"/></linearGradient><linearGradient id="s" x1="318.942" x2="141.617" y1="69.234" y2="230.935" gradientUnits="userSpaceOnUse"><stop stop-color="#4dff00"/><stop offset="1" stop-color="#5ed0fe"/></linearGradient><linearGradient id="t" x1="318.942" x2="141.617" y1="69.234" y2="230.935" gradientUnits="userSpaceOnUse"><stop stop-color="#4dff00"/><stop offset="1" stop-color="#5ed0fe"/></linearGradient><linearGradient id="u" x1="318.942" x2="141.617" y1="69.234" y2="230.935" gradientUnits="userSpaceOnUse"><stop stop-color="#4dff00"/><stop offset="1" stop-color="#5ed0fe"/></linearGradient><linearGradient id="v" x1="318.942" x2="141.617" y1="69.234" y2="230.935" gradientUnits="userSpaceOnUse"><stop stop-color="#4dff00"/><stop offset="1" stop-color="#5ed0fe"/></linearGradient><linearGradient id="w" x1="318.942" x2="141.617" y1="69.234" y2="230.935" gradientUnits="userSpaceOnUse"><stop stop-color="#4dff00"/><stop offset="1" stop-color="#5ed0fe"/></linearGradient><linearGradient id="x" x1="318.942" x2="141.617" y1="69.234" y2="230.935" gradientUnits="userSpaceOnUse"><stop stop-color="#4dff00"/><stop offset="1" stop-color="#5ed0fe"/></linearGradient><linearGradient id="y" x1="318.942" x2="141.617" y1="69.234" y2="230.935" gradientUnits="userSpaceOnUse"><stop stop-color="#4dff00"/><stop offset="1" stop-color="#5ed0fe"/></linearGradient></defs></svg>