<svg xmlns="http://www.w3.org/2000/svg" viewBox="0 0 512 580" width="512" height="580">
  <defs>
    <linearGradient id="mainGrad" x1="0" y1="0" x2="512" y2="512" gradientUnits="userSpaceOnUse">
      <stop offset="0" stop-color="#5ed0fe"/>
      <stop offset=".5" stop-color="#0862a7"/>
      <stop offset="1" stop-color="#6b119a"/>
    </linearGradient>
    <linearGradient id="accentGrad" x1="0" y1="256" x2="512" y2="256" gradientUnits="userSpaceOnUse">
      <stop offset="0" stop-color="#4dff00"/>
      <stop offset="1" stop-color="#5ed0fe"/>
    </linearGradient>
    <linearGradient id="bodyGrad" x1="256" y1="40" x2="256" y2="470" gradientUnits="userSpaceOnUse">
      <stop offset="0" stop-color="#5ed0fe"/>
      <stop offset=".4" stop-color="#0862a7"/>
      <stop offset="1" stop-color="#6b119a"/>
    </linearGradient>
    <linearGradient id="wingGradL" x1="20" y1="90" x2="256" y2="270" gradientUnits="userSpaceOnUse">
      <stop offset="0" stop-color="#5ed0fe"/>
      <stop offset="1" stop-color="#0862a7"/>
    </linearGradient>
    <linearGradient id="wingGradR" x1="492" y1="90" x2="256" y2="270" gradientUnits="userSpaceOnUse">
      <stop offset="0" stop-color="#5ed0fe"/>
      <stop offset="1" stop-color="#0862a7"/>
    </linearGradient>
    <radialGradient id="eyeGlowL" cx="235" cy="98" r="25" gradientUnits="userSpaceOnUse">
      <stop offset="0" stop-color="#4dff00" stop-opacity=".8"/>
      <stop offset=".4" stop-color="#4dff00" stop-opacity=".2"/>
      <stop offset="1" stop-color="#4dff00" stop-opacity="0"/>
    </radialGradient>
    <radialGradient id="eyeGlowR" cx="277" cy="98" r="25" gradientUnits="userSpaceOnUse">
      <stop offset="0" stop-color="#4dff00" stop-opacity=".8"/>
      <stop offset=".4" stop-color="#4dff00" stop-opacity=".2"/>
      <stop offset="1" stop-color="#4dff00" stop-opacity="0"/>
    </radialGradient>
    <radialGradient id="centerGlow" cx="256" cy="260" r="160" gradientUnits="userSpaceOnUse">
      <stop offset="0" stop-color="#0862a7" stop-opacity=".3"/>
      <stop offset="1" stop-color="#0862a7" stop-opacity="0"/>
    </radialGradient>
    <radialGradient id="headGlow" cx="256" cy="70" r="60" gradientUnits="userSpaceOnUse">
      <stop offset="0" stop-color="#5ed0fe" stop-opacity=".25"/>
      <stop offset="1" stop-color="#5ed0fe" stop-opacity="0"/>
    </radialGradient>
    <filter id="glow">
      <feGaussianBlur stdDeviation="3" result="b"/>
      <feMerge><feMergeNode in="b"/><feMergeNode in="SourceGraphic"/></feMerge>
    </filter>
    <filter id="strongGlow">
      <feGaussianBlur stdDeviation="6" result="b"/>
      <feMerge><feMergeNode in="b"/><feMergeNode in="SourceGraphic"/></feMerge>
    </filter>
    <filter id="eyeBloom">
      <feGaussianBlur stdDeviation="4" result="b"/>
      <feColorMatrix in="b" type="saturate" values="2" result="s"/>
      <feMerge><feMergeNode in="s"/><feMergeNode in="SourceGraphic"/></feMerge>
    </filter>
    <linearGradient id="textGrad" x1="17" y1="530" x2="492" y2="530" gradientUnits="userSpaceOnUse">
      <stop offset="0" stop-color="#5ed0fe"/>
      <stop offset=".5" stop-color="#0862a7"/>
      <stop offset="1" stop-color="#6b119a"/>
    </linearGradient>
  </defs>

  <rect width="512" height="580" rx="48" fill="#080c14"/>

  <circle cx="256" cy="260" r="180" fill="url(#centerGlow)"/>
  <circle cx="256" cy="70" r="70" fill="url(#headGlow)"/>

  <!-- Filled facets -->
  <polygon points="256,45 165,170 20,90" fill="#0862a7" opacity=".2"/>
  <polygon points="165,170 20,90 50,200" fill="#0862a7" opacity=".15"/>
  <polygon points="165,170 50,200 256,270" fill="#0a4a80" opacity=".12"/>
  <polygon points="256,45 347,170 492,90" fill="#0862a7" opacity=".2"/>
  <polygon points="347,170 492,90 462,200" fill="#0862a7" opacity=".15"/>
  <polygon points="347,170 462,200 256,270" fill="#0a4a80" opacity=".12"/>
  <polygon points="256,45 165,170 256,270" fill="#0862a7" opacity=".18"/>
  <polygon points="256,45 347,170 256,270" fill="#451f96" opacity=".18"/>
  <polygon points="256,270 185,345 256,450" fill="#451f96" opacity=".14"/>
  <polygon points="256,270 327,345 256,450" fill="#6b119a" opacity=".14"/>
  <polygon points="185,345 140,435 256,450" fill="#6b119a" opacity=".1"/>
  <polygon points="327,345 372,435 256,450" fill="#6b119a" opacity=".1"/>

  <!-- Edges -->
  <line x1="256" y1="45" x2="20" y2="90" stroke="url(#wingGradL)" stroke-width="1.5" opacity=".5"/>
  <line x1="256" y1="45" x2="492" y2="90" stroke="url(#wingGradR)" stroke-width="1.5" opacity=".5"/>
  <line x1="60" y1="72" x2="20" y2="90" stroke="#5ed0fe" stroke-width="1.2" opacity=".4"/>
  <line x1="452" y1="72" x2="492" y2="90" stroke="#5ed0fe" stroke-width="1.2" opacity=".4"/>
  <line x1="60" y1="72" x2="100" y2="125" stroke="#5ed0fe" stroke-width="1" opacity=".3"/>
  <line x1="452" y1="72" x2="412" y2="125" stroke="#5ed0fe" stroke-width="1" opacity=".3"/>
  <line x1="256" y1="45" x2="165" y2="170" stroke="url(#bodyGrad)" stroke-width="2.5" filter="url(#glow)"/>
  <line x1="256" y1="45" x2="347" y2="170" stroke="url(#bodyGrad)" stroke-width="2.5" filter="url(#glow)"/>
  <line x1="20" y1="90" x2="165" y2="170" stroke="url(#mainGrad)" stroke-width="2" filter="url(#glow)"/>
  <line x1="492" y1="90" x2="347" y2="170" stroke="url(#mainGrad)" stroke-width="2" filter="url(#glow)"/>
  <line x1="20" y1="90" x2="50" y2="200" stroke="url(#mainGrad)" stroke-width="2" filter="url(#glow)"/>
  <line x1="492" y1="90" x2="462" y2="200" stroke="url(#mainGrad)" stroke-width="2" filter="url(#glow)"/>
  <line x1="50" y1="200" x2="165" y2="170" stroke="url(#mainGrad)" stroke-width="1.8" filter="url(#glow)"/>
  <line x1="462" y1="200" x2="347" y2="170" stroke="url(#mainGrad)" stroke-width="1.8" filter="url(#glow)"/>
  <line x1="20" y1="90" x2="347" y2="170" stroke="url(#mainGrad)" stroke-width="1" opacity=".2"/>
  <line x1="492" y1="90" x2="165" y2="170" stroke="url(#mainGrad)" stroke-width="1" opacity=".2"/>
  <line x1="165" y1="170" x2="347" y2="170" stroke="url(#accentGrad)" stroke-width="1.5" opacity=".35"/>
  <line x1="165" y1="170" x2="256" y2="270" stroke="url(#bodyGrad)" stroke-width="2.5" filter="url(#glow)"/>
  <line x1="347" y1="170" x2="256" y2="270" stroke="url(#bodyGrad)" stroke-width="2.5" filter="url(#glow)"/>
  <line x1="50" y1="200" x2="256" y2="270" stroke="url(#mainGrad)" stroke-width="1.2" opacity=".35"/>
  <line x1="462" y1="200" x2="256" y2="270" stroke="url(#mainGrad)" stroke-width="1.2" opacity=".35"/>
  <line x1="256" y1="45" x2="256" y2="270" stroke="url(#bodyGrad)" stroke-width="3" filter="url(#glow)"/>
  <line x1="256" y1="270" x2="256" y2="450" stroke="url(#bodyGrad)" stroke-width="2.5" filter="url(#glow)"/>
  <line x1="220" y1="78" x2="235" y2="95" stroke="#4dff00" stroke-width="2" opacity=".7" filter="url(#glow)"/>
  <line x1="292" y1="78" x2="277" y2="95" stroke="#4dff00" stroke-width="2" opacity=".7" filter="url(#glow)"/>
  <line x1="235" y1="98" x2="256" y2="130" stroke="url(#bodyGrad)" stroke-width="2" opacity=".8"/>
  <line x1="277" y1="98" x2="256" y2="130" stroke="url(#bodyGrad)" stroke-width="2" opacity=".8"/>
  <line x1="256" y1="270" x2="185" y2="345" stroke="url(#bodyGrad)" stroke-width="2" filter="url(#glow)"/>
  <line x1="256" y1="270" x2="327" y2="345" stroke="url(#bodyGrad)" stroke-width="2" filter="url(#glow)"/>
  <line x1="185" y1="345" x2="256" y2="450" stroke="url(#bodyGrad)" stroke-width="1.8" filter="url(#glow)"/>
  <line x1="327" y1="345" x2="256" y2="450" stroke="url(#bodyGrad)" stroke-width="1.8" filter="url(#glow)"/>
  <line x1="185" y1="345" x2="327" y2="345" stroke="url(#mainGrad)" stroke-width="1.2" opacity=".35"/>
  <line x1="185" y1="345" x2="140" y2="435" stroke="url(#mainGrad)" stroke-width="1.5" opacity=".45" filter="url(#glow)"/>
  <line x1="327" y1="345" x2="372" y2="435" stroke="url(#mainGrad)" stroke-width="1.5" opacity=".45" filter="url(#glow)"/>
  <line x1="140" y1="435" x2="256" y2="450" stroke="url(#mainGrad)" stroke-width="1.2" opacity=".35"/>
  <line x1="372" y1="435" x2="256" y2="450" stroke="url(#mainGrad)" stroke-width="1.2" opacity=".35"/>
  <line x1="185" y1="345" x2="160" y2="385" stroke="#5ed0fe" stroke-width="1.5" opacity=".4"/>
  <line x1="160" y1="385" x2="148" y2="370" stroke="#5ed0fe" stroke-width="1.2" opacity=".35"/>
  <line x1="327" y1="345" x2="352" y2="385" stroke="#5ed0fe" stroke-width="1.5" opacity=".4"/>
  <line x1="352" y1="385" x2="364" y2="370" stroke="#5ed0fe" stroke-width="1.2" opacity=".35"/>

  <!-- Binary digits -->
  <g font-family="'Courier New',monospace" fill="#5ed0fe">
    <text x="88" y="108" font-size="12" opacity=".55">1</text>
    <text x="118" y="132" font-size="10" opacity=".45">0</text>
    <text x="68" y="148" font-size="11" opacity=".5">1</text>
    <text x="100" y="170" font-size="9" opacity=".4">0</text>
    <text x="415" y="108" font-size="12" opacity=".55">0</text>
    <text x="390" y="132" font-size="10" opacity=".45">1</text>
    <text x="435" y="148" font-size="11" opacity=".5">0</text>
    <text x="405" y="170" font-size="9" opacity=".4">1</text>
    <text x="208" y="210" font-size="11" opacity=".45">1</text>
    <text x="296" y="210" font-size="11" opacity=".45">0</text>
    <text x="222" y="300" font-size="10" opacity=".4">0</text>
    <text x="280" y="300" font-size="10" opacity=".4">1</text>
    <text x="206" y="375" font-size="9" opacity=".35">1</text>
    <text x="300" y="375" font-size="9" opacity=".35">0</text>
    <text font-size="7" opacity=".25">
      <tspan x="35" y="105">01101</tspan>
      <tspan x="440" y="105">10010</tspan>
    </text>
    <text font-size="7" opacity=".2">
      <tspan x="55" y="190">110</tspan>
      <tspan x="445" y="190">001</tspan>
    </text>
    <text font-size="8" opacity=".3">
      <tspan x="155" y="445">101</tspan>
      <tspan x="350" y="445">010</tspan>
    </text>
  </g>

  <!-- Nodes -->
  <circle cx="256" cy="45" r="13" fill="url(#bodyGrad)" filter="url(#strongGlow)"/>
  <circle cx="256" cy="45" r="6" fill="#fff" opacity=".9"/>
  <circle cx="235" cy="98" r="18" fill="url(#eyeGlowL)"/>
  <circle cx="277" cy="98" r="18" fill="url(#eyeGlowR)"/>
  <circle cx="235" cy="98" r="7" fill="#4dff00" filter="url(#eyeBloom)"/>
  <circle cx="235" cy="98" r="3" fill="#fff" opacity=".95"/>
  <circle cx="277" cy="98" r="7" fill="#4dff00" filter="url(#eyeBloom)"/>
  <circle cx="277" cy="98" r="3" fill="#fff" opacity=".95"/>
  <circle cx="220" cy="78" r="4" fill="#5ed0fe" opacity=".7"/>
  <circle cx="292" cy="78" r="4" fill="#5ed0fe" opacity=".7"/>
  <circle cx="256" cy="130" r="5" fill="url(#bodyGrad)" filter="url(#glow)"/>
  <circle cx="256" cy="130" r="2.5" fill="#5ed0fe" opacity=".8"/>
  <circle cx="20" cy="90" r="9" fill="url(#mainGrad)" filter="url(#glow)"/>
  <circle cx="20" cy="90" r="4" fill="#5ed0fe" opacity=".8"/>
  <circle cx="492" cy="90" r="9" fill="url(#mainGrad)" filter="url(#glow)"/>
  <circle cx="492" cy="90" r="4" fill="#5ed0fe" opacity=".8"/>
  <circle cx="60" cy="72" r="4" fill="#5ed0fe" opacity=".5"/>
  <circle cx="452" cy="72" r="4" fill="#5ed0fe" opacity=".5"/>
  <circle cx="100" cy="125" r="5" fill="url(#mainGrad)" opacity=".6"/>
  <circle cx="412" cy="125" r="5" fill="url(#mainGrad)" opacity=".6"/>
  <circle cx="165" cy="170" r="11" fill="url(#mainGrad)" filter="url(#glow)"/>
  <circle cx="165" cy="170" r="5" fill="#fff" opacity=".5"/>
  <circle cx="347" cy="170" r="11" fill="url(#mainGrad)" filter="url(#glow)"/>
  <circle cx="347" cy="170" r="5" fill="#fff" opacity=".5"/>
  <circle cx="50" cy="200" r="7" fill="url(#mainGrad)" filter="url(#glow)"/>
  <circle cx="50" cy="200" r="3.5" fill="#5ed0fe" opacity=".7"/>
  <circle cx="462" cy="200" r="7" fill="url(#mainGrad)" filter="url(#glow)"/>
  <circle cx="462" cy="200" r="3.5" fill="#5ed0fe" opacity=".7"/>
  <circle cx="256" cy="270" r="15" fill="url(#mainGrad)" filter="url(#strongGlow)"/>
  <circle cx="256" cy="270" r="8" fill="url(#accentGrad)"/>
  <circle cx="256" cy="270" r="3.5" fill="#fff" opacity=".85"/>
  <circle cx="185" cy="345" r="9" fill="url(#bodyGrad)" filter="url(#glow)"/>
  <circle cx="185" cy="345" r="4" fill="#5ed0fe" opacity=".6"/>
  <circle cx="327" cy="345" r="9" fill="url(#bodyGrad)" filter="url(#glow)"/>
  <circle cx="327" cy="345" r="4" fill="#5ed0fe" opacity=".6"/>
  <circle cx="256" cy="450" r="10" fill="url(#bodyGrad)" filter="url(#glow)"/>
  <circle cx="256" cy="450" r="5" fill="#6b119a" opacity=".8"/>
  <circle cx="140" cy="435" r="5" fill="url(#mainGrad)" opacity=".5"/>
  <circle cx="372" cy="435" r="5" fill="url(#mainGrad)" opacity=".5"/>
  <circle cx="160" cy="385" r="4" fill="#5ed0fe" opacity=".45"/>
  <circle cx="148" cy="370" r="3" fill="#5ed0fe" opacity=".35"/>
  <circle cx="352" cy="385" r="4" fill="#5ed0fe" opacity=".45"/>
  <circle cx="364" cy="370" r="3" fill="#5ed0fe" opacity=".35"/>
  <circle cx="138" cy="130" r="2.5" fill="#4dff00" opacity=".5"/>
  <circle cx="374" cy="130" r="2.5" fill="#4dff00" opacity=".5"/>
  <circle cx="210" cy="215" r="2.5" fill="#5ed0fe" opacity=".4"/>
  <circle cx="302" cy="215" r="2.5" fill="#5ed0fe" opacity=".4"/>
  <circle cx="220" cy="308" r="2.5" fill="#5ed0fe" opacity=".35"/>
  <circle cx="292" cy="308" r="2.5" fill="#5ed0fe" opacity=".35"/>
  <circle cx="170" cy="410" r="2" fill="#6b119a" opacity=".4"/>
  <circle cx="342" cy="410" r="2" fill="#6b119a" opacity=".4"/>
  <path d="M22.357421875 545.0V506.0H27.435546875L66.61328125 538.982421875H66.6640625V506.0H71.5390625V545.0H66.4609375L27.283203125 511.73828125H27.232421875V545.0ZM117.154296875 536.31640625Q117.154296875 539.591796875 116.1767578125 541.470703125Q115.19921875 543.349609375 113.193359375 544.212890625Q111.1875 545.076171875 108.0771484375 545.3173828125Q104.966796875 545.55859375 100.67578125 545.55859375Q95.775390625 545.55859375 92.3603515625 545.0634765625Q88.9453125 544.568359375 86.8505859375 543.0322265625Q84.755859375 541.49609375 83.8037109375 538.423828125Q82.8515625 535.3515625 82.8515625 530.22265625Q82.8515625 525.24609375 83.7783203125 522.25Q84.705078125 519.25390625 86.787109375 517.73046875Q88.869140625 516.20703125 92.2587890625 515.69921875Q95.6484375 515.19140625 100.548828125 515.19140625Q106.16015625 515.19140625 109.841796875 515.978515625Q113.5234375 516.765625 115.3388671875 518.974609375Q117.154296875 521.18359375 117.154296875 525.44921875V531.720703125H87.751953125Q87.77734375 534.970703125 88.208984375 536.92578125Q88.640625 538.880859375 89.935546875 539.87109375Q91.23046875 540.861328125 93.8076171875 541.1787109375Q96.384765625 541.49609375 100.67578125 541.49609375Q104.53515625 541.49609375 106.9091796875 541.34375Q109.283203125 541.19140625 110.5146484375 540.6708984375Q111.74609375 540.150390625 112.177734375 539.109375Q112.609375 538.068359375 112.609375 536.31640625ZM100.548828125 519.25390625Q96.41015625 519.25390625 93.8837890625 519.55859375Q91.357421875 519.86328125 90.037109375 520.7392578125Q88.716796875 521.615234375 88.2470703125 523.341796875Q87.77734375 525.068359375 87.751953125 527.88671875H112.482421875V525.44921875Q112.482421875 523.62109375 112.0634765625 522.4150390625Q111.64453125 521.208984375 110.42578125 520.5107421875Q109.20703125 519.8125 106.8330078125 519.533203125Q104.458984375 519.25390625 100.548828125 519.25390625ZM143.98046875 545.55859375Q138.6484375 545.55859375 135.4111328125 545.203125Q132.173828125 544.84765625 130.5107421875 543.8828125Q128.84765625 542.91796875 128.2763671875 541.140625Q127.705078125 539.36328125 127.705078125 536.51953125H132.376953125Q132.376953125 538.119140625 132.60546875 539.0966796875Q132.833984375 540.07421875 133.900390625 540.5947265625Q134.966796875 541.115234375 137.3662109375 541.3056640625Q139.765625 541.49609375 144.107421875 541.49609375Q148.703125 541.49609375 151.2548828125 541.3056640625Q153.806640625 541.115234375 154.923828125 540.5947265625Q156.041015625 540.07421875 156.2822265625 539.083984375Q156.5234375 538.09375 156.5234375 536.46875Q156.5234375 534.48828125 156.16796875 533.498046875Q155.8125 532.5078125 154.4921875 532.1650390625Q153.171875 531.822265625 150.27734375 531.796875L138.6484375 531.669921875Q134.154296875 531.619140625 131.79296875 530.908203125Q129.431640625 530.197265625 128.568359375 528.4072265625Q127.705078125 526.6171875 127.705078125 523.31640625Q127.705078125 520.244140625 128.6572265625 518.568359375Q129.609375 516.892578125 131.640625 516.181640625Q133.671875 515.470703125 136.921875 515.3310546875Q140.171875 515.19140625 144.767578125 515.19140625Q150.17578125 515.19140625 153.3623046875 515.521484375Q156.548828125 515.8515625 158.1357421875 516.765625Q159.72265625 517.6796875 160.2177734375 519.4189453125Q160.712890625 521.158203125 160.712890625 523.951171875H156.041015625Q156.041015625 522.30078125 155.8125 521.3486328125Q155.583984375 520.396484375 154.5810546875 519.9521484375Q153.578125 519.5078125 151.3310546875 519.380859375Q149.083984375 519.25390625 145.021484375 519.25390625Q140.400390625 519.25390625 137.8359375 519.35546875Q135.271484375 519.45703125 134.12890625 519.837890625Q132.986328125 520.21875 132.732421875 521.0439453125Q132.478515625 521.869140625 132.478515625 523.31640625Q132.478515625 524.7890625 132.6435546875 525.6396484375Q132.80859375 526.490234375 133.51953125 526.921875Q134.23046875 527.353515625 135.8427734375 527.4931640625Q137.455078125 527.6328125 140.349609375 527.658203125L150.37890625 527.759765625Q154.8984375 527.810546875 157.2470703125 528.5087890625Q159.595703125 529.20703125 160.4462890625 531.0732421875Q161.296875 532.939453125 161.296875 536.46875Q161.296875 539.642578125 160.3701171875 541.470703125Q159.443359375 543.298828125 157.412109375 544.1748046875Q155.380859375 545.05078125 152.0673828125 545.3046875Q148.75390625 545.55859375 143.98046875 545.55859375ZM185.330078125 545.0Q180.861328125 545.0 178.169921875 544.0986328125Q175.478515625 543.197265625 174.2724609375 540.8994140625Q173.06640625 538.6015625 173.06640625 534.4375V507.751953125H177.94140625V515.75H195.943359375V519.76171875H177.94140625V534.4375Q177.94140625 537.28125 178.4619140625 538.677734375Q178.982421875 540.07421875 180.5693359375 540.505859375Q182.15625 540.9375 185.330078125 540.9375Q188.1484375 540.9375 189.7607421875 540.759765625Q191.373046875 540.58203125 192.134765625 539.8076171875Q192.896484375 539.033203125 193.099609375 537.255859375Q193.302734375 535.478515625 193.302734375 532.25390625H197.619140625Q197.619140625 536.46875 197.0986328125 539.0078125Q196.578125 541.546875 195.2451171875 542.841796875Q193.912109375 544.13671875 191.5126953125 544.568359375Q189.11328125 545.0 185.330078125 545.0ZM226.603515625 545.0 207.43359375 506.0H213.044921875L229.853515625 540.861328125L245.697265625 506.0H251.384765625L267.228515625 540.861328125L282.412109375 506.0H288.0234375L270.478515625 545.0H263.978515625L248.541015625 510.900390625L233.103515625 545.0ZM330.71875 536.31640625Q330.71875 539.591796875 329.7412109375 541.470703125Q328.763671875 543.349609375 326.7578125 544.212890625Q324.751953125 545.076171875 321.6416015625 545.3173828125Q318.53125 545.55859375 314.240234375 545.55859375Q309.33984375 545.55859375 305.9248046875 545.0634765625Q302.509765625 544.568359375 300.4150390625 543.0322265625Q298.3203125 541.49609375 297.3681640625 538.423828125Q296.416015625 535.3515625 296.416015625 530.22265625Q296.416015625 525.24609375 297.3427734375 522.25Q298.26953125 519.25390625 300.3515625 517.73046875Q302.43359375 516.20703125 305.8232421875 515.69921875Q309.212890625 515.19140625 314.11328125 515.19140625Q319.724609375 515.19140625 323.40625 515.978515625Q327.087890625 516.765625 328.9033203125 518.974609375Q330.71875 521.18359375 330.71875 525.44921875V531.720703125H301.31640625Q301.341796875 534.970703125 301.7734375 536.92578125Q302.205078125 538.880859375 303.5 539.87109375Q304.794921875 540.861328125 307.3720703125 541.1787109375Q309.94921875 541.49609375 314.240234375 541.49609375Q318.099609375 541.49609375 320.4736328125 541.34375Q322.84765625 541.19140625 324.0791015625 540.6708984375Q325.310546875 540.150390625 325.7421875 539.109375Q326.173828125 538.068359375 326.173828125 536.31640625ZM314.11328125 519.25390625Q309.974609375 519.25390625 307.4482421875 519.55859375Q304.921875 519.86328125 303.6015625 520.7392578125Q302.28125 521.615234375 301.8115234375 523.341796875Q301.341796875 525.068359375 301.31640625 527.88671875H326.046875V525.44921875Q326.046875 523.62109375 325.6279296875 522.4150390625Q325.208984375 521.208984375 323.990234375 520.5107421875Q322.771484375 519.8125 320.3974609375 519.533203125Q318.0234375 519.25390625 314.11328125 519.25390625ZM356.453125 545.55859375Q351.197265625 545.55859375 347.7822265625 545.0126953125Q344.3671875 544.466796875 342.7041015625 542.61328125Q341.041015625 540.759765625 341.041015625 536.849609375Q341.041015625 532.86328125 342.6025390625 530.9970703125Q344.1640625 529.130859375 347.5537109375 528.572265625Q350.943359375 528.013671875 356.453125 528.013671875Q360.921875 528.013671875 363.943359375 528.216796875Q366.96484375 528.419921875 369.3515625 528.927734375Q369.30078125 525.55078125 368.89453125 523.6083984375Q368.48828125 521.666015625 367.37109375 520.7265625Q366.25390625 519.787109375 364.1083984375 519.5205078125Q361.962890625 519.25390625 358.408203125 519.25390625Q354.345703125 519.25390625 352.0478515625 519.431640625Q349.75 519.609375 348.708984375 520.06640625Q347.66796875 520.5234375 347.4013671875 521.38671875Q347.134765625 522.25 347.134765625 523.62109375H342.259765625Q342.259765625 520.87890625 343.0087890625 519.203125Q343.7578125 517.52734375 345.560546875 516.6640625Q347.36328125 515.80078125 350.4990234375 515.49609375Q353.634765625 515.19140625 358.408203125 515.19140625Q363.537109375 515.19140625 366.6728515625 515.8515625Q369.80859375 516.51171875 371.4462890625 518.2255859375Q373.083984375 519.939453125 373.6552734375 523.01171875Q374.2265625 526.083984375 374.2265625 530.93359375V545.0H369.3515625V542.994140625Q368.48828125 543.908203125 366.96484375 544.466796875Q365.44140625 545.025390625 362.9150390625 545.2919921875Q360.388671875 545.55859375 356.453125 545.55859375ZM356.453125 541.59765625Q360.794921875 541.59765625 363.384765625 541.49609375Q365.974609375 541.39453125 367.2568359375 540.9375Q368.5390625 540.48046875 368.9453125 539.46484375Q369.3515625 538.44921875 369.3515625 536.62109375V532.126953125L356.453125 531.974609375Q353.025390625 531.923828125 350.9306640625 532.0634765625Q348.8359375 532.203125 347.744140625 532.6728515625Q346.65234375 533.142578125 346.2841796875 534.1455078125Q345.916015625 535.1484375 345.916015625 536.849609375Q345.916015625 538.5 346.2841796875 539.46484375Q346.65234375 540.4296875 347.744140625 540.88671875Q348.8359375 541.34375 350.9306640625 541.470703125Q353.025390625 541.59765625 356.453125 541.59765625ZM398.28515625 545.0 383.0 515.75H388.73828125L401.53515625 541.34375H401.5859375L414.63671875 515.75H420.0703125L404.78515625 545.0ZM462.435546875 536.31640625Q462.435546875 539.591796875 461.4580078125 541.470703125Q460.48046875 543.349609375 458.474609375 544.212890625Q456.46875 545.076171875 453.3583984375 545.3173828125Q450.248046875 545.55859375 445.95703125 545.55859375Q441.056640625 545.55859375 437.6416015625 545.0634765625Q434.2265625 544.568359375 432.1318359375 543.0322265625Q430.037109375 541.49609375 429.0849609375 538.423828125Q428.1328125 535.3515625 428.1328125 530.22265625Q428.1328125 525.24609375 429.0595703125 522.25Q429.986328125 519.25390625 432.068359375 517.73046875Q434.150390625 516.20703125 437.5400390625 515.69921875Q440.9296875 515.19140625 445.830078125 515.19140625Q451.44140625 515.19140625 455.123046875 515.978515625Q458.8046875 516.765625 460.6201171875 518.974609375Q462.435546875 521.18359375 462.435546875 525.44921875V531.720703125H433.033203125Q433.05859375 534.970703125 433.490234375 536.92578125Q433.921875 538.880859375 435.216796875 539.87109375Q436.51171875 540.861328125 439.0888671875 541.1787109375Q441.666015625 541.49609375 445.95703125 541.49609375Q449.81640625 541.49609375 452.1904296875 541.34375Q454.564453125 541.19140625 455.7958984375 540.6708984375Q457.02734375 540.150390625 457.458984375 539.109375Q457.890625 538.068359375 457.890625 536.31640625ZM445.830078125 519.25390625Q441.69140625 519.25390625 439.1650390625 519.55859375Q436.638671875 519.86328125 435.318359375 520.7392578125Q433.998046875 521.615234375 433.5283203125 523.341796875Q433.05859375 525.068359375 433.033203125 527.88671875H457.763671875V525.44921875Q457.763671875 523.62109375 457.3447265625 522.4150390625Q456.92578125 521.208984375 455.70703125 520.5107421875Q454.48828125 519.8125 452.1142578125 519.533203125Q449.740234375 519.25390625 445.830078125 519.25390625ZM473.240234375 545.0V515.75H478.115234375V519.787109375Q478.927734375 518.4921875 479.7529296875 517.62890625Q480.578125 516.765625 481.9111328125 516.2578125Q483.244140625 515.75 485.529296875 515.5341796875Q487.814453125 515.318359375 491.546875 515.318359375V519.40625Q486.51953125 519.40625 483.7646484375 519.76171875Q481.009765625 520.1171875 479.81640625 520.9677734375Q478.623046875 521.818359375 478.369140625 523.31640625Q478.115234375 524.814453125 478.115234375 527.125V545.0Z" fill="url(#textGrad)"/>
</svg>
