<svg xmlns="http://www.w3.org/2000/svg" viewBox="0 0 2221 512" width="2221" height="512">
  <defs>
    <linearGradient id="mainGrad" x1="0" y1="0" x2="512" y2="512" gradientUnits="userSpaceOnUse">
      <stop offset="0" stop-color="#5ed0fe"/>
      <stop offset=".5" stop-color="#0862a7"/>
      <stop offset="1" stop-color="#6b119a"/>
    </linearGradient>
    <linearGradient id="accentGrad" x1="0" y1="256" x2="512" y2="256" gradientUnits="userSpaceOnUse">
      <stop offset="0" stop-color="#4dff00"/>
      <stop offset="1" stop-color="#5ed0fe"/>
    </linearGradient>
    <linearGradient id="bodyGrad" x1="256" y1="40" x2="256" y2="470" gradientUnits="userSpaceOnUse">
      <stop offset="0" stop-color="#5ed0fe"/>
      <stop offset=".4" stop-color="#0862a7"/>
      <stop offset="1" stop-color="#6b119a"/>
    </linearGradient>
    <linearGradient id="wingGradL" x1="20" y1="90" x2="256" y2="270" gradientUnits="userSpaceOnUse">
      <stop offset="0" stop-color="#5ed0fe"/>
      <stop offset="1" stop-color="#0862a7"/>
    </linearGradient>
    <linearGradient id="wingGradR" x1="492" y1="90" x2="256" y2="270" gradientUnits="userSpaceOnUse">
      <stop offset="0" stop-color="#5ed0fe"/>
      <stop offset="1" stop-color="#0862a7"/>
    </linearGradient>
    <radialGradient id="eyeGlowL" cx="235" cy="98" r="25" gradientUnits="userSpaceOnUse">
      <stop offset="0" stop-color="#4dff00" stop-opacity=".8"/>
      <stop offset=".4" stop-color="#4dff00" stop-opacity=".2"/>
      <stop offset="1" stop-color="#4dff00" stop-opacity="0"/>
    </radialGradient>
    <radialGradient id="eyeGlowR" cx="277" cy="98" r="25" gradientUnits="userSpaceOnUse">
      <stop offset="0" stop-color="#4dff00" stop-opacity=".8"/>
      <stop offset=".4" stop-color="#4dff00" stop-opacity=".2"/>
      <stop offset="1" stop-color="#4dff00" stop-opacity="0"/>
    </radialGradient>
    <radialGradient id="centerGlow" cx="256" cy="260" r="160" gradientUnits="userSpaceOnUse">
      <stop offset="0" stop-color="#0862a7" stop-opacity=".3"/>
      <stop offset="1" stop-color="#0862a7" stop-opacity="0"/>
    </radialGradient>
    <radialGradient id="headGlow" cx="256" cy="70" r="60" gradientUnits="userSpaceOnUse">
      <stop offset="0" stop-color="#5ed0fe" stop-opacity=".25"/>
      <stop offset="1" stop-color="#5ed0fe" stop-opacity="0"/>
    </radialGradient>
    <filter id="glow">
      <feGaussianBlur stdDeviation="3" result="b"/>
      <feMerge><feMergeNode in="b"/><feMergeNode in="SourceGraphic"/></feMerge>
    </filter>
    <filter id="strongGlow">
      <feGaussianBlur stdDeviation="6" result="b"/>
      <feMerge><feMergeNode in="b"/><feMergeNode in="SourceGraphic"/></feMerge>
    </filter>
    <filter id="eyeBloom">
      <feGaussianBlur stdDeviation="4" result="b"/>
      <feColorMatrix in="b" type="saturate" values="2" result="s"/>
      <feMerge><feMergeNode in="s"/><feMergeNode in="SourceGraphic"/></feMerge>
    </filter>
    <linearGradient id="textGrad" x1="542" y1="256" x2="2201" y2="256" gradientUnits="userSpaceOnUse">
      <stop offset="0" stop-color="#5ed0fe"/>
      <stop offset=".5" stop-color="#0862a7"/>
      <stop offset="1" stop-color="#6b119a"/>
    </linearGradient>
  </defs>

  <!-- transparent background for overlay on any dark surface -->

  <circle cx="256" cy="260" r="180" fill="url(#centerGlow)"/>
  <circle cx="256" cy="70" r="70" fill="url(#headGlow)"/>

  <!-- Filled facets -->
  <polygon points="256,45 165,170 20,90" fill="#0862a7" opacity=".2"/>
  <polygon points="165,170 20,90 50,200" fill="#0862a7" opacity=".15"/>
  <polygon points="165,170 50,200 256,270" fill="#0a4a80" opacity=".12"/>
  <polygon points="256,45 347,170 492,90" fill="#0862a7" opacity=".2"/>
  <polygon points="347,170 492,90 462,200" fill="#0862a7" opacity=".15"/>
  <polygon points="347,170 462,200 256,270" fill="#0a4a80" opacity=".12"/>
  <polygon points="256,45 165,170 256,270" fill="#0862a7" opacity=".18"/>
  <polygon points="256,45 347,170 256,270" fill="#451f96" opacity=".18"/>
  <polygon points="256,270 185,345 256,450" fill="#451f96" opacity=".14"/>
  <polygon points="256,270 327,345 256,450" fill="#6b119a" opacity=".14"/>
  <polygon points="185,345 140,435 256,450" fill="#6b119a" opacity=".1"/>
  <polygon points="327,345 372,435 256,450" fill="#6b119a" opacity=".1"/>

  <!-- Edges -->
  <line x1="256" y1="45" x2="20" y2="90" stroke="url(#wingGradL)" stroke-width="1.5" opacity=".5"/>
  <line x1="256" y1="45" x2="492" y2="90" stroke="url(#wingGradR)" stroke-width="1.5" opacity=".5"/>
  <line x1="60" y1="72" x2="20" y2="90" stroke="#5ed0fe" stroke-width="1.2" opacity=".4"/>
  <line x1="452" y1="72" x2="492" y2="90" stroke="#5ed0fe" stroke-width="1.2" opacity=".4"/>
  <line x1="60" y1="72" x2="100" y2="125" stroke="#5ed0fe" stroke-width="1" opacity=".3"/>
  <line x1="452" y1="72" x2="412" y2="125" stroke="#5ed0fe" stroke-width="1" opacity=".3"/>
  <line x1="256" y1="45" x2="165" y2="170" stroke="url(#bodyGrad)" stroke-width="2.5" filter="url(#glow)"/>
  <line x1="256" y1="45" x2="347" y2="170" stroke="url(#bodyGrad)" stroke-width="2.5" filter="url(#glow)"/>
  <line x1="20" y1="90" x2="165" y2="170" stroke="url(#mainGrad)" stroke-width="2" filter="url(#glow)"/>
  <line x1="492" y1="90" x2="347" y2="170" stroke="url(#mainGrad)" stroke-width="2" filter="url(#glow)"/>
  <line x1="20" y1="90" x2="50" y2="200" stroke="url(#mainGrad)" stroke-width="2" filter="url(#glow)"/>
  <line x1="492" y1="90" x2="462" y2="200" stroke="url(#mainGrad)" stroke-width="2" filter="url(#glow)"/>
  <line x1="50" y1="200" x2="165" y2="170" stroke="url(#mainGrad)" stroke-width="1.8" filter="url(#glow)"/>
  <line x1="462" y1="200" x2="347" y2="170" stroke="url(#mainGrad)" stroke-width="1.8" filter="url(#glow)"/>
  <line x1="20" y1="90" x2="347" y2="170" stroke="url(#mainGrad)" stroke-width="1" opacity=".2"/>
  <line x1="492" y1="90" x2="165" y2="170" stroke="url(#mainGrad)" stroke-width="1" opacity=".2"/>
  <line x1="165" y1="170" x2="347" y2="170" stroke="url(#accentGrad)" stroke-width="1.5" opacity=".35"/>
  <line x1="165" y1="170" x2="256" y2="270" stroke="url(#bodyGrad)" stroke-width="2.5" filter="url(#glow)"/>
  <line x1="347" y1="170" x2="256" y2="270" stroke="url(#bodyGrad)" stroke-width="2.5" filter="url(#glow)"/>
  <line x1="50" y1="200" x2="256" y2="270" stroke="url(#mainGrad)" stroke-width="1.2" opacity=".35"/>
  <line x1="462" y1="200" x2="256" y2="270" stroke="url(#mainGrad)" stroke-width="1.2" opacity=".35"/>
  <line x1="256" y1="45" x2="256" y2="270" stroke="url(#bodyGrad)" stroke-width="3" filter="url(#glow)"/>
  <line x1="256" y1="270" x2="256" y2="450" stroke="url(#bodyGrad)" stroke-width="2.5" filter="url(#glow)"/>
  <line x1="220" y1="78" x2="235" y2="95" stroke="#4dff00" stroke-width="2" opacity=".7" filter="url(#glow)"/>
  <line x1="292" y1="78" x2="277" y2="95" stroke="#4dff00" stroke-width="2" opacity=".7" filter="url(#glow)"/>
  <line x1="235" y1="98" x2="256" y2="130" stroke="url(#bodyGrad)" stroke-width="2" opacity=".8"/>
  <line x1="277" y1="98" x2="256" y2="130" stroke="url(#bodyGrad)" stroke-width="2" opacity=".8"/>
  <line x1="256" y1="270" x2="185" y2="345" stroke="url(#bodyGrad)" stroke-width="2" filter="url(#glow)"/>
  <line x1="256" y1="270" x2="327" y2="345" stroke="url(#bodyGrad)" stroke-width="2" filter="url(#glow)"/>
  <line x1="185" y1="345" x2="256" y2="450" stroke="url(#bodyGrad)" stroke-width="1.8" filter="url(#glow)"/>
  <line x1="327" y1="345" x2="256" y2="450" stroke="url(#bodyGrad)" stroke-width="1.8" filter="url(#glow)"/>
  <line x1="185" y1="345" x2="327" y2="345" stroke="url(#mainGrad)" stroke-width="1.2" opacity=".35"/>
  <line x1="185" y1="345" x2="140" y2="435" stroke="url(#mainGrad)" stroke-width="1.5" opacity=".45" filter="url(#glow)"/>
  <line x1="327" y1="345" x2="372" y2="435" stroke="url(#mainGrad)" stroke-width="1.5" opacity=".45" filter="url(#glow)"/>
  <line x1="140" y1="435" x2="256" y2="450" stroke="url(#mainGrad)" stroke-width="1.2" opacity=".35"/>
  <line x1="372" y1="435" x2="256" y2="450" stroke="url(#mainGrad)" stroke-width="1.2" opacity=".35"/>
  <line x1="185" y1="345" x2="160" y2="385" stroke="#5ed0fe" stroke-width="1.5" opacity=".4"/>
  <line x1="160" y1="385" x2="148" y2="370" stroke="#5ed0fe" stroke-width="1.2" opacity=".35"/>
  <line x1="327" y1="345" x2="352" y2="385" stroke="#5ed0fe" stroke-width="1.5" opacity=".4"/>
  <line x1="352" y1="385" x2="364" y2="370" stroke="#5ed0fe" stroke-width="1.2" opacity=".35"/>

  <!-- Binary digits -->
  <g font-family="'Courier New',monospace" fill="#5ed0fe">
    <text x="88" y="108" font-size="12" opacity=".55">1</text>
    <text x="118" y="132" font-size="10" opacity=".45">0</text>
    <text x="68" y="148" font-size="11" opacity=".5">1</text>
    <text x="100" y="170" font-size="9" opacity=".4">0</text>
    <text x="415" y="108" font-size="12" opacity=".55">0</text>
    <text x="390" y="132" font-size="10" opacity=".45">1</text>
    <text x="435" y="148" font-size="11" opacity=".5">0</text>
    <text x="405" y="170" font-size="9" opacity=".4">1</text>
    <text x="208" y="210" font-size="11" opacity=".45">1</text>
    <text x="296" y="210" font-size="11" opacity=".45">0</text>
    <text x="222" y="300" font-size="10" opacity=".4">0</text>
    <text x="280" y="300" font-size="10" opacity=".4">1</text>
    <text x="206" y="375" font-size="9" opacity=".35">1</text>
    <text x="300" y="375" font-size="9" opacity=".35">0</text>
    <text font-size="7" opacity=".25">
      <tspan x="35" y="105">01101</tspan>
      <tspan x="440" y="105">10010</tspan>
    </text>
    <text font-size="7" opacity=".2">
      <tspan x="55" y="190">110</tspan>
      <tspan x="445" y="190">001</tspan>
    </text>
    <text font-size="8" opacity=".3">
      <tspan x="155" y="445">101</tspan>
      <tspan x="350" y="445">010</tspan>
    </text>
  </g>

  <!-- Nodes -->
  <circle cx="256" cy="45" r="13" fill="url(#bodyGrad)" filter="url(#strongGlow)"/>
  <circle cx="256" cy="45" r="6" fill="#fff" opacity=".9"/>
  <circle cx="235" cy="98" r="18" fill="url(#eyeGlowL)"/>
  <circle cx="277" cy="98" r="18" fill="url(#eyeGlowR)"/>
  <circle cx="235" cy="98" r="7" fill="#4dff00" filter="url(#eyeBloom)"/>
  <circle cx="235" cy="98" r="3" fill="#fff" opacity=".95"/>
  <circle cx="277" cy="98" r="7" fill="#4dff00" filter="url(#eyeBloom)"/>
  <circle cx="277" cy="98" r="3" fill="#fff" opacity=".95"/>
  <circle cx="220" cy="78" r="4" fill="#5ed0fe" opacity=".7"/>
  <circle cx="292" cy="78" r="4" fill="#5ed0fe" opacity=".7"/>
  <circle cx="256" cy="130" r="5" fill="url(#bodyGrad)" filter="url(#glow)"/>
  <circle cx="256" cy="130" r="2.5" fill="#5ed0fe" opacity=".8"/>
  <circle cx="20" cy="90" r="9" fill="url(#mainGrad)" filter="url(#glow)"/>
  <circle cx="20" cy="90" r="4" fill="#5ed0fe" opacity=".8"/>
  <circle cx="492" cy="90" r="9" fill="url(#mainGrad)" filter="url(#glow)"/>
  <circle cx="492" cy="90" r="4" fill="#5ed0fe" opacity=".8"/>
  <circle cx="60" cy="72" r="4" fill="#5ed0fe" opacity=".5"/>
  <circle cx="452" cy="72" r="4" fill="#5ed0fe" opacity=".5"/>
  <circle cx="100" cy="125" r="5" fill="url(#mainGrad)" opacity=".6"/>
  <circle cx="412" cy="125" r="5" fill="url(#mainGrad)" opacity=".6"/>
  <circle cx="165" cy="170" r="11" fill="url(#mainGrad)" filter="url(#glow)"/>
  <circle cx="165" cy="170" r="5" fill="#fff" opacity=".5"/>
  <circle cx="347" cy="170" r="11" fill="url(#mainGrad)" filter="url(#glow)"/>
  <circle cx="347" cy="170" r="5" fill="#fff" opacity=".5"/>
  <circle cx="50" cy="200" r="7" fill="url(#mainGrad)" filter="url(#glow)"/>
  <circle cx="50" cy="200" r="3.5" fill="#5ed0fe" opacity=".7"/>
  <circle cx="462" cy="200" r="7" fill="url(#mainGrad)" filter="url(#glow)"/>
  <circle cx="462" cy="200" r="3.5" fill="#5ed0fe" opacity=".7"/>
  <circle cx="256" cy="270" r="15" fill="url(#mainGrad)" filter="url(#strongGlow)"/>
  <circle cx="256" cy="270" r="8" fill="url(#accentGrad)"/>
  <circle cx="256" cy="270" r="3.5" fill="#fff" opacity=".85"/>
  <circle cx="185" cy="345" r="9" fill="url(#bodyGrad)" filter="url(#glow)"/>
  <circle cx="185" cy="345" r="4" fill="#5ed0fe" opacity=".6"/>
  <circle cx="327" cy="345" r="9" fill="url(#bodyGrad)" filter="url(#glow)"/>
  <circle cx="327" cy="345" r="4" fill="#5ed0fe" opacity=".6"/>
  <circle cx="256" cy="450" r="10" fill="url(#bodyGrad)" filter="url(#glow)"/>
  <circle cx="256" cy="450" r="5" fill="#6b119a" opacity=".8"/>
  <circle cx="140" cy="435" r="5" fill="url(#mainGrad)" opacity=".5"/>
  <circle cx="372" cy="435" r="5" fill="url(#mainGrad)" opacity=".5"/>
  <circle cx="160" cy="385" r="4" fill="#5ed0fe" opacity=".45"/>
  <circle cx="148" cy="370" r="3" fill="#5ed0fe" opacity=".35"/>
  <circle cx="352" cy="385" r="4" fill="#5ed0fe" opacity=".45"/>
  <circle cx="364" cy="370" r="3" fill="#5ed0fe" opacity=".35"/>
  <circle cx="138" cy="130" r="2.5" fill="#4dff00" opacity=".5"/>
  <circle cx="374" cy="130" r="2.5" fill="#4dff00" opacity=".5"/>
  <circle cx="210" cy="215" r="2.5" fill="#5ed0fe" opacity=".4"/>
  <circle cx="302" cy="215" r="2.5" fill="#5ed0fe" opacity=".4"/>
  <circle cx="220" cy="308" r="2.5" fill="#5ed0fe" opacity=".35"/>
  <circle cx="292" cy="308" r="2.5" fill="#5ed0fe" opacity=".35"/>
  <circle cx="170" cy="410" r="2" fill="#6b119a" opacity=".4"/>
  <circle cx="342" cy="410" r="2" fill="#6b119a" opacity=".4"/>
  <path d="M559.34375 325.375V186.625H577.41015625L716.79248046875 303.96630859375H716.97314453125V186.625H734.31689453125V325.375H716.25048828125L576.8681640625 207.0400390625H576.6875V325.375ZM892.37109375 294.4814453125Q892.37109375 306.13427734375 888.893310546875 312.81884765625Q885.41552734375 319.50341796875 878.279296875 322.57470703125Q871.14306640625 325.64599609375 860.077392578125 326.504150390625Q849.01171875 327.3623046875 833.74560546875 327.3623046875Q816.3115234375 327.3623046875 804.161865234375 325.600830078125Q792.01220703125 323.83935546875 784.559814453125 318.374267578125Q777.107421875 312.9091796875 773.719970703125 301.97900390625Q770.33251953125 291.048828125 770.33251953125 272.8017578125Q770.33251953125 255.0966796875 773.629638671875 244.4375Q776.9267578125 233.7783203125 784.333984375 228.3583984375Q791.7412109375 222.9384765625 803.800537109375 221.1318359375Q815.85986328125 219.3251953125 833.2939453125 219.3251953125Q853.25732421875 219.3251953125 866.35546875 222.12548828125Q879.45361328125 224.92578125 885.912353515625 232.78466796875Q892.37109375 240.6435546875 892.37109375 255.8193359375V278.13134765625H787.7666015625Q787.85693359375 289.69384765625 789.392578125 296.6494140625Q790.92822265625 303.60498046875 795.53515625 307.1279296875Q800.14208984375 310.65087890625 809.310791015625 311.780029296875Q818.4794921875 312.9091796875 833.74560546875 312.9091796875Q847.47607421875 312.9091796875 855.922119140625 312.3671875Q864.3681640625 311.8251953125 868.749267578125 309.973388671875Q873.13037109375 308.12158203125 874.666015625 304.41796875Q876.20166015625 300.71435546875 876.20166015625 294.4814453125ZM833.2939453125 233.7783203125Q818.56982421875 233.7783203125 809.581787109375 234.8623046875Q800.59375 235.9462890625 795.896484375 239.062744140625Q791.19921875 242.17919921875 789.528076171875 248.32177734375Q787.85693359375 254.46435546875 787.7666015625 264.4912109375H875.75V255.8193359375Q875.75 249.3154296875 874.259521484375 245.024658203125Q872.76904296875 240.73388671875 868.43310546875 238.249755859375Q864.09716796875 235.765625 855.651123046875 234.77197265625Q847.205078125 233.7783203125 833.2939453125 233.7783203125ZM983.57958984375 327.3623046875Q964.60986328125 327.3623046875 953.092529296875 326.09765625Q941.5751953125 324.8330078125 935.658447265625 321.400390625Q929.74169921875 317.9677734375 927.709228515625 311.64453125Q925.6767578125 305.3212890625 925.6767578125 295.2041015625H942.2978515625Q942.2978515625 300.89501953125 943.11083984375 304.372802734375Q943.923828125 307.8505859375 947.7177734375 309.702392578125Q951.51171875 311.55419921875 960.048095703125 312.231689453125Q968.58447265625 312.9091796875 984.03125 312.9091796875Q1000.38134765625 312.9091796875 1009.459716796875 312.231689453125Q1018.5380859375 311.55419921875 1022.5126953125 309.702392578125Q1026.4873046875 307.8505859375 1027.345458984375 304.32763671875Q1028.20361328125 300.8046875 1028.20361328125 295.0234375Q1028.20361328125 287.9775390625 1026.93896484375 284.45458984375Q1025.67431640625 280.931640625 1020.97705078125 279.712158203125Q1016.27978515625 278.49267578125 1005.98193359375 278.40234375L964.60986328125 277.95068359375Q948.62109375 277.77001953125 940.22021484375 275.24072265625Q931.8193359375 272.71142578125 928.748046875 266.343017578125Q925.6767578125 259.974609375 925.6767578125 248.2314453125Q925.6767578125 237.30126953125 929.064208984375 231.33935546875Q932.45166015625 225.37744140625 939.67822265625 222.84814453125Q946.90478515625 220.31884765625 958.46728515625 219.822021484375Q970.02978515625 219.3251953125 986.3798828125 219.3251953125Q1005.62060546875 219.3251953125 1016.957275390625 220.49951171875Q1028.2939453125 221.673828125 1033.939697265625 224.92578125Q1039.58544921875 228.177734375 1041.346923828125 234.365478515625Q1043.1083984375 240.55322265625 1043.1083984375 250.48974609375H1026.4873046875Q1026.4873046875 244.6181640625 1025.67431640625 241.230712890625Q1024.861328125 237.84326171875 1021.293212890625 236.262451171875Q1017.72509765625 234.681640625 1009.730712890625 234.22998046875Q1001.736328125 233.7783203125 987.283203125 233.7783203125Q970.8427734375 233.7783203125 961.71923828125 234.1396484375Q952.595703125 234.5009765625 948.53076171875 235.85595703125Q944.4658203125 237.2109375 943.5625 240.146728515625Q942.6591796875 243.08251953125 942.6591796875 248.2314453125Q942.6591796875 253.470703125 943.246337890625 256.496826171875Q943.83349609375 259.52294921875 946.36279296875 261.05859375Q948.89208984375 262.59423828125 954.628173828125 263.091064453125Q960.3642578125 263.587890625 970.662109375 263.67822265625L1006.34326171875 264.03955078125Q1022.42236328125 264.22021484375 1030.778076171875 266.704345703125Q1039.1337890625 269.1884765625 1042.159912109375 275.827880859375Q1045.18603515625 282.46728515625 1045.18603515625 295.0234375Q1045.18603515625 306.31494140625 1041.888916015625 312.81884765625Q1038.591796875 319.32275390625 1031.365234375 322.439208984375Q1024.138671875 325.5556640625 1012.350341796875 326.458984375Q1000.56201171875 327.3623046875 983.57958984375 327.3623046875ZM1126.4580078125 325.375Q1110.5595703125 325.375 1100.984375 322.168212890625Q1091.4091796875 318.96142578125 1087.118408203125 310.786376953125Q1082.82763671875 302.611328125 1082.82763671875 287.796875V192.85791015625H1100.17138671875V221.3125H1164.216796875V235.5849609375H1100.17138671875V287.796875Q1100.17138671875 297.9140625 1102.023193359375 302.88232421875Q1103.875 307.8505859375 1109.520751953125 309.38623046875Q1115.16650390625 310.921875 1126.4580078125 310.921875Q1136.48486328125 310.921875 1142.220947265625 310.28955078125Q1147.95703125 309.6572265625 1150.6669921875 306.902099609375Q1153.376953125 304.14697265625 1154.099609375 297.82373046875Q1154.822265625 291.50048828125 1154.822265625 280.0283203125H1170.1787109375Q1170.1787109375 295.0234375 1168.326904296875 304.056640625Q1166.47509765625 313.08984375 1161.732666015625 317.69677734375Q1156.990234375 322.3037109375 1148.453857421875 323.83935546875Q1139.91748046875 325.375 1126.4580078125 325.375ZM1269.0654296875 325.375 1200.86474609375 186.625H1220.828125L1280.6279296875 310.65087890625L1336.9951171875 186.625H1357.2294921875L1413.5966796875 310.65087890625L1467.615234375 186.625H1487.57861328125L1425.1591796875 325.375H1402.0341796875L1347.1123046875 204.05908203125L1292.1904296875 325.375ZM1635.24462890625 294.4814453125Q1635.24462890625 306.13427734375 1631.766845703125 312.81884765625Q1628.2890625 319.50341796875 1621.15283203125 322.57470703125Q1614.0166015625 325.64599609375 1602.950927734375 326.504150390625Q1591.88525390625 327.3623046875 1576.619140625 327.3623046875Q1559.18505859375 327.3623046875 1547.035400390625 325.600830078125Q1534.8857421875 323.83935546875 1527.433349609375 318.374267578125Q1519.98095703125 312.9091796875 1516.593505859375 301.97900390625Q1513.2060546875 291.048828125 1513.2060546875 272.8017578125Q1513.2060546875 255.0966796875 1516.503173828125 244.4375Q1519.80029296875 233.7783203125 1527.20751953125 228.3583984375Q1534.61474609375 222.9384765625 1546.674072265625 221.1318359375Q1558.7333984375 219.3251953125 1576.16748046875 219.3251953125Q1596.130859375 219.3251953125 1609.22900390625 222.12548828125Q1622.3271484375 224.92578125 1628.785888671875 232.78466796875Q1635.24462890625 240.6435546875 1635.24462890625 255.8193359375V278.13134765625H1530.64013671875Q1530.73046875 289.69384765625 1532.26611328125 296.6494140625Q1533.8017578125 303.60498046875 1538.40869140625 307.1279296875Q1543.015625 310.65087890625 1552.184326171875 311.780029296875Q1561.35302734375 312.9091796875 1576.619140625 312.9091796875Q1590.349609375 312.9091796875 1598.795654296875 312.3671875Q1607.24169921875 311.8251953125 1611.622802734375 309.973388671875Q1616.00390625 308.12158203125 1617.53955078125 304.41796875Q1619.0751953125 300.71435546875 1619.0751953125 294.4814453125ZM1576.16748046875 233.7783203125Q1561.443359375 233.7783203125 1552.455322265625 234.8623046875Q1543.46728515625 235.9462890625 1538.77001953125 239.062744140625Q1534.07275390625 242.17919921875 1532.401611328125 248.32177734375Q1530.73046875 254.46435546875 1530.64013671875 264.4912109375H1618.62353515625V255.8193359375Q1618.62353515625 249.3154296875 1617.133056640625 245.024658203125Q1615.642578125 240.73388671875 1611.306640625 238.249755859375Q1606.970703125 235.765625 1598.524658203125 234.77197265625Q1590.07861328125 233.7783203125 1576.16748046875 233.7783203125ZM1722.56884765625 327.3623046875Q1703.8701171875 327.3623046875 1691.720458984375 325.420166015625Q1679.57080078125 323.47802734375 1673.654052734375 316.8837890625Q1667.7373046875 310.28955078125 1667.7373046875 296.37841796875Q1667.7373046875 282.1962890625 1673.292724609375 275.556884765625Q1678.84814453125 268.91748046875 1690.907470703125 266.93017578125Q1702.966796875 264.94287109375 1722.56884765625 264.94287109375Q1738.46728515625 264.94287109375 1749.216796875 265.66552734375Q1759.96630859375 266.38818359375 1768.45751953125 268.19482421875Q1768.27685546875 256.1806640625 1766.83154296875 249.270263671875Q1765.38623046875 242.35986328125 1761.41162109375 239.017578125Q1757.43701171875 235.67529296875 1749.803955078125 234.726806640625Q1742.1708984375 233.7783203125 1729.5244140625 233.7783203125Q1715.0712890625 233.7783203125 1706.896240234375 234.41064453125Q1698.72119140625 235.04296875 1695.017578125 236.6689453125Q1691.31396484375 238.294921875 1690.365478515625 241.3662109375Q1689.4169921875 244.4375 1689.4169921875 249.3154296875H1672.0732421875Q1672.0732421875 239.5595703125 1674.738037109375 233.59765625Q1677.40283203125 227.6357421875 1683.81640625 224.564453125Q1690.22998046875 221.4931640625 1701.385986328125 220.4091796875Q1712.5419921875 219.3251953125 1729.5244140625 219.3251953125Q1747.771484375 219.3251953125 1758.927490234375 221.673828125Q1770.08349609375 224.0224609375 1775.909912109375 230.119873046875Q1781.736328125 236.21728515625 1783.768798828125 247.1474609375Q1785.80126953125 258.07763671875 1785.80126953125 275.3310546875V325.375H1768.45751953125V318.23876953125Q1765.38623046875 321.49072265625 1759.96630859375 323.47802734375Q1754.54638671875 325.46533203125 1745.558349609375 326.413818359375Q1736.5703125 327.3623046875 1722.56884765625 327.3623046875ZM1722.56884765625 313.2705078125Q1738.015625 313.2705078125 1747.2294921875 312.9091796875Q1756.443359375 312.5478515625 1761.005126953125 310.921875Q1765.56689453125 309.2958984375 1767.01220703125 305.6826171875Q1768.45751953125 302.0693359375 1768.45751953125 295.5654296875V279.57666015625L1722.56884765625 279.03466796875Q1710.3740234375 278.85400390625 1702.921630859375 279.350830078125Q1695.46923828125 279.84765625 1691.5849609375 281.518798828125Q1687.70068359375 283.18994140625 1686.390869140625 286.758056640625Q1685.0810546875 290.326171875 1685.0810546875 296.37841796875Q1685.0810546875 302.25 1686.390869140625 305.6826171875Q1687.70068359375 309.115234375 1691.5849609375 310.7412109375Q1695.46923828125 312.3671875 1702.921630859375 312.81884765625Q1710.3740234375 313.2705078125 1722.56884765625 313.2705078125ZM1867.16357421875 325.375 1812.78369140625 221.3125H1833.19873046875L1878.72607421875 312.3671875H1878.90673828125L1925.33740234375 221.3125H1944.66845703125L1890.28857421875 325.375ZM2091.16015625 294.4814453125Q2091.16015625 306.13427734375 2087.682373046875 312.81884765625Q2084.20458984375 319.50341796875 2077.068359375 322.57470703125Q2069.93212890625 325.64599609375 2058.866455078125 326.504150390625Q2047.80078125 327.3623046875 2032.53466796875 327.3623046875Q2015.1005859375 327.3623046875 2002.950927734375 325.600830078125Q1990.80126953125 323.83935546875 1983.348876953125 318.374267578125Q1975.896484375 312.9091796875 1972.509033203125 301.97900390625Q1969.12158203125 291.048828125 1969.12158203125 272.8017578125Q1969.12158203125 255.0966796875 1972.418701171875 244.4375Q1975.7158203125 233.7783203125 1983.123046875 228.3583984375Q1990.5302734375 222.9384765625 2002.589599609375 221.1318359375Q2014.64892578125 219.3251953125 2032.0830078125 219.3251953125Q2052.04638671875 219.3251953125 2065.14453125 222.12548828125Q2078.24267578125 224.92578125 2084.701416015625 232.78466796875Q2091.16015625 240.6435546875 2091.16015625 255.8193359375V278.13134765625H1986.5556640625Q1986.64599609375 289.69384765625 1988.181640625 296.6494140625Q1989.71728515625 303.60498046875 1994.32421875 307.1279296875Q1998.93115234375 310.65087890625 2008.099853515625 311.780029296875Q2017.2685546875 312.9091796875 2032.53466796875 312.9091796875Q2046.26513671875 312.9091796875 2054.711181640625 312.3671875Q2063.1572265625 311.8251953125 2067.538330078125 309.973388671875Q2071.91943359375 308.12158203125 2073.455078125 304.41796875Q2074.99072265625 300.71435546875 2074.99072265625 294.4814453125ZM2032.0830078125 233.7783203125Q2017.35888671875 233.7783203125 2008.370849609375 234.8623046875Q1999.3828125 235.9462890625 1994.685546875 239.062744140625Q1989.98828125 242.17919921875 1988.317138671875 248.32177734375Q1986.64599609375 254.46435546875 1986.5556640625 264.4912109375H2074.5390625V255.8193359375Q2074.5390625 249.3154296875 2073.048583984375 245.024658203125Q2071.55810546875 240.73388671875 2067.22216796875 238.249755859375Q2062.88623046875 235.765625 2054.440185546875 234.77197265625Q2045.994140625 233.7783203125 2032.0830078125 233.7783203125ZM2125.369140625 325.375V221.3125H2142.712890625V235.67529296875Q2145.603515625 231.068359375 2148.539306640625 227.9970703125Q2151.47509765625 224.92578125 2156.217529296875 223.119140625Q2160.9599609375 221.3125 2169.08984375 220.544677734375Q2177.2197265625 219.77685546875 2190.49853515625 219.77685546875V234.3203125Q2172.61279296875 234.3203125 2162.811767578125 235.5849609375Q2153.0107421875 236.849609375 2148.76513671875 239.875732421875Q2144.51953125 242.90185546875 2143.6162109375 248.2314453125Q2142.712890625 253.56103515625 2142.712890625 261.78125V325.375Z" fill="url(#textGrad)"/>
</svg>
